G04 EAGLE Gerber RS-274X export*
G75*
%MOMM*%
%FSLAX34Y34*%
%LPD*%
%INBottom Copper*%
%IPPOS*%
%AMOC8*
5,1,8,0,0,1.08239X$1,22.5*%
G01*
%ADD10P,1.732040X8X22.500000*%
%ADD11C,1.600200*%
%ADD12C,1.800000*%
%ADD13C,2.000000*%
%ADD14R,1.000000X1.100000*%
%ADD15C,1.508000*%
%ADD16R,1.320800X0.558800*%
%ADD17C,1.308000*%
%ADD18C,0.508000*%

G36*
X-484626Y10172D02*
X-484626Y10172D01*
X-484698Y10174D01*
X-484747Y10192D01*
X-484798Y10200D01*
X-484861Y10234D01*
X-484929Y10259D01*
X-484969Y10291D01*
X-485015Y10316D01*
X-485065Y10367D01*
X-485121Y10412D01*
X-485149Y10456D01*
X-485185Y10494D01*
X-485215Y10559D01*
X-485254Y10619D01*
X-485266Y10670D01*
X-485288Y10717D01*
X-485296Y10788D01*
X-485314Y10858D01*
X-485310Y10910D01*
X-485315Y10961D01*
X-485300Y11032D01*
X-485295Y11103D01*
X-485274Y11151D01*
X-485263Y11202D01*
X-485226Y11263D01*
X-485198Y11329D01*
X-485153Y11385D01*
X-485137Y11413D01*
X-485119Y11428D01*
X-485093Y11460D01*
X-479303Y17251D01*
X-474265Y27139D01*
X-472529Y38100D01*
X-474265Y49061D01*
X-479303Y58950D01*
X-487151Y66797D01*
X-497039Y71835D01*
X-508000Y73571D01*
X-518961Y71835D01*
X-528850Y66797D01*
X-534640Y61007D01*
X-534698Y60965D01*
X-534750Y60915D01*
X-534797Y60893D01*
X-534839Y60863D01*
X-534908Y60842D01*
X-534973Y60812D01*
X-535025Y60806D01*
X-535075Y60791D01*
X-535146Y60793D01*
X-535217Y60785D01*
X-535268Y60796D01*
X-535320Y60797D01*
X-535388Y60822D01*
X-535458Y60837D01*
X-535503Y60864D01*
X-535551Y60881D01*
X-535607Y60926D01*
X-535669Y60963D01*
X-535703Y61003D01*
X-535743Y61035D01*
X-535782Y61095D01*
X-535829Y61150D01*
X-535848Y61198D01*
X-535876Y61242D01*
X-535894Y61312D01*
X-535921Y61378D01*
X-535929Y61449D01*
X-535937Y61481D01*
X-535935Y61504D01*
X-535939Y61545D01*
X-535939Y497255D01*
X-535928Y497326D01*
X-535926Y497398D01*
X-535908Y497447D01*
X-535900Y497498D01*
X-535866Y497561D01*
X-535841Y497629D01*
X-535809Y497669D01*
X-535784Y497715D01*
X-535732Y497765D01*
X-535688Y497821D01*
X-535644Y497849D01*
X-535606Y497885D01*
X-535541Y497915D01*
X-535481Y497954D01*
X-535430Y497966D01*
X-535383Y497988D01*
X-535312Y497996D01*
X-535242Y498014D01*
X-535190Y498010D01*
X-535139Y498015D01*
X-535068Y498000D01*
X-534997Y497995D01*
X-534949Y497974D01*
X-534898Y497963D01*
X-534837Y497926D01*
X-534771Y497898D01*
X-534715Y497853D01*
X-534687Y497837D01*
X-534672Y497819D01*
X-534640Y497793D01*
X-528850Y492003D01*
X-518961Y486965D01*
X-508000Y485229D01*
X-497039Y486965D01*
X-487150Y492003D01*
X-479303Y499850D01*
X-474265Y509739D01*
X-472529Y520700D01*
X-474265Y531661D01*
X-479303Y541550D01*
X-485093Y547340D01*
X-485135Y547398D01*
X-485185Y547450D01*
X-485207Y547497D01*
X-485237Y547539D01*
X-485258Y547608D01*
X-485288Y547673D01*
X-485294Y547725D01*
X-485309Y547775D01*
X-485307Y547846D01*
X-485315Y547917D01*
X-485304Y547968D01*
X-485303Y548020D01*
X-485278Y548088D01*
X-485263Y548158D01*
X-485236Y548203D01*
X-485219Y548251D01*
X-485174Y548307D01*
X-485137Y548369D01*
X-485097Y548403D01*
X-485065Y548443D01*
X-485005Y548482D01*
X-484950Y548529D01*
X-484902Y548548D01*
X-484858Y548576D01*
X-484788Y548594D01*
X-484722Y548621D01*
X-484651Y548629D01*
X-484619Y548637D01*
X-484596Y548635D01*
X-484555Y548639D01*
X-277445Y548639D01*
X-277374Y548628D01*
X-277302Y548626D01*
X-277253Y548608D01*
X-277202Y548600D01*
X-277139Y548566D01*
X-277071Y548541D01*
X-277031Y548509D01*
X-276985Y548484D01*
X-276935Y548432D01*
X-276879Y548388D01*
X-276851Y548344D01*
X-276815Y548306D01*
X-276785Y548241D01*
X-276746Y548181D01*
X-276734Y548130D01*
X-276712Y548083D01*
X-276704Y548012D01*
X-276686Y547942D01*
X-276690Y547890D01*
X-276685Y547839D01*
X-276700Y547768D01*
X-276705Y547697D01*
X-276726Y547649D01*
X-276737Y547598D01*
X-276774Y547537D01*
X-276802Y547471D01*
X-276847Y547415D01*
X-276863Y547387D01*
X-276881Y547372D01*
X-276907Y547340D01*
X-282697Y541550D01*
X-287735Y531661D01*
X-289471Y520700D01*
X-287735Y509739D01*
X-282697Y499850D01*
X-274850Y492003D01*
X-264961Y486965D01*
X-254000Y485229D01*
X-243039Y486965D01*
X-233150Y492003D01*
X-225303Y499850D01*
X-220265Y509739D01*
X-218529Y520700D01*
X-220265Y531661D01*
X-225303Y541550D01*
X-231093Y547340D01*
X-231135Y547398D01*
X-231185Y547450D01*
X-231207Y547497D01*
X-231237Y547539D01*
X-231258Y547608D01*
X-231288Y547673D01*
X-231294Y547725D01*
X-231309Y547775D01*
X-231307Y547846D01*
X-231315Y547917D01*
X-231304Y547968D01*
X-231303Y548020D01*
X-231278Y548088D01*
X-231263Y548158D01*
X-231236Y548203D01*
X-231219Y548251D01*
X-231174Y548307D01*
X-231137Y548369D01*
X-231097Y548403D01*
X-231065Y548443D01*
X-231005Y548482D01*
X-230950Y548529D01*
X-230902Y548548D01*
X-230858Y548576D01*
X-230788Y548594D01*
X-230722Y548621D01*
X-230651Y548629D01*
X-230619Y548637D01*
X-230596Y548635D01*
X-230555Y548639D01*
X-10922Y548639D01*
X-10902Y548636D01*
X-10883Y548638D01*
X-10781Y548616D01*
X-10679Y548600D01*
X-10662Y548590D01*
X-10642Y548586D01*
X-10553Y548533D01*
X-10462Y548484D01*
X-10448Y548470D01*
X-10431Y548460D01*
X-10364Y548381D01*
X-10292Y548306D01*
X-10284Y548288D01*
X-10271Y548273D01*
X-10232Y548177D01*
X-10189Y548083D01*
X-10187Y548063D01*
X-10179Y548045D01*
X-10161Y547878D01*
X-10161Y61545D01*
X-10172Y61474D01*
X-10174Y61402D01*
X-10192Y61353D01*
X-10200Y61302D01*
X-10234Y61239D01*
X-10259Y61171D01*
X-10291Y61131D01*
X-10316Y61085D01*
X-10368Y61035D01*
X-10412Y60979D01*
X-10456Y60951D01*
X-10494Y60915D01*
X-10559Y60885D01*
X-10619Y60846D01*
X-10670Y60834D01*
X-10717Y60812D01*
X-10788Y60804D01*
X-10858Y60786D01*
X-10910Y60790D01*
X-10961Y60785D01*
X-11032Y60800D01*
X-11103Y60805D01*
X-11151Y60826D01*
X-11202Y60837D01*
X-11263Y60874D01*
X-11329Y60902D01*
X-11385Y60947D01*
X-11413Y60963D01*
X-11428Y60981D01*
X-11460Y61007D01*
X-17250Y66797D01*
X-27139Y71835D01*
X-38100Y73571D01*
X-49061Y71835D01*
X-58949Y66797D01*
X-66797Y58949D01*
X-71835Y49061D01*
X-73571Y38100D01*
X-71835Y27139D01*
X-66797Y17250D01*
X-61007Y11460D01*
X-60965Y11402D01*
X-60915Y11350D01*
X-60893Y11303D01*
X-60863Y11261D01*
X-60842Y11192D01*
X-60812Y11127D01*
X-60806Y11075D01*
X-60791Y11025D01*
X-60793Y10954D01*
X-60785Y10883D01*
X-60796Y10832D01*
X-60797Y10780D01*
X-60822Y10712D01*
X-60837Y10642D01*
X-60864Y10597D01*
X-60881Y10549D01*
X-60926Y10493D01*
X-60963Y10431D01*
X-61003Y10397D01*
X-61035Y10357D01*
X-61095Y10318D01*
X-61150Y10271D01*
X-61198Y10252D01*
X-61242Y10224D01*
X-61312Y10206D01*
X-61378Y10179D01*
X-61449Y10171D01*
X-61481Y10163D01*
X-61504Y10165D01*
X-61545Y10161D01*
X-484555Y10161D01*
X-484626Y10172D01*
G37*
%LPC*%
G36*
X-251704Y102759D02*
X-251704Y102759D01*
X-247463Y104516D01*
X-244216Y107763D01*
X-242459Y112004D01*
X-242459Y116596D01*
X-242868Y117582D01*
X-242894Y117695D01*
X-242923Y117809D01*
X-242923Y117816D01*
X-242924Y117822D01*
X-242913Y117938D01*
X-242904Y118055D01*
X-242902Y118060D01*
X-242901Y118067D01*
X-242853Y118175D01*
X-242808Y118281D01*
X-242803Y118287D01*
X-242801Y118291D01*
X-242788Y118305D01*
X-242703Y118412D01*
X-221118Y139996D01*
X-221045Y140049D01*
X-220975Y140109D01*
X-220945Y140121D01*
X-220919Y140140D01*
X-220832Y140167D01*
X-220747Y140201D01*
X-220706Y140205D01*
X-220684Y140212D01*
X-220651Y140211D01*
X-220580Y140219D01*
X-187078Y140219D01*
X-186963Y140200D01*
X-186847Y140183D01*
X-186842Y140181D01*
X-186835Y140180D01*
X-186733Y140125D01*
X-186628Y140072D01*
X-186624Y140067D01*
X-186618Y140064D01*
X-186538Y139980D01*
X-186456Y139896D01*
X-186452Y139890D01*
X-186449Y139886D01*
X-186441Y139869D01*
X-186375Y139749D01*
X-185732Y138196D01*
X-182204Y134668D01*
X-177595Y132759D01*
X-160060Y132759D01*
X-159970Y132745D01*
X-159879Y132737D01*
X-159849Y132725D01*
X-159817Y132720D01*
X-159736Y132677D01*
X-159653Y132641D01*
X-159620Y132615D01*
X-159600Y132604D01*
X-159578Y132581D01*
X-159522Y132536D01*
X-136205Y109219D01*
X-91094Y109219D01*
X-90980Y109200D01*
X-90863Y109183D01*
X-90858Y109181D01*
X-90852Y109180D01*
X-90749Y109125D01*
X-90644Y109072D01*
X-90640Y109067D01*
X-90634Y109064D01*
X-90554Y108980D01*
X-90472Y108896D01*
X-90468Y108890D01*
X-90465Y108886D01*
X-90457Y108869D01*
X-90391Y108749D01*
X-90217Y108329D01*
X-87251Y105363D01*
X-83377Y103758D01*
X-79183Y103758D01*
X-75309Y105363D01*
X-72343Y108329D01*
X-70738Y112203D01*
X-70738Y116397D01*
X-70913Y116818D01*
X-70939Y116931D01*
X-70968Y117045D01*
X-70967Y117051D01*
X-70969Y117057D01*
X-70958Y117174D01*
X-70949Y117290D01*
X-70946Y117296D01*
X-70946Y117302D01*
X-70898Y117410D01*
X-70852Y117516D01*
X-70848Y117522D01*
X-70846Y117527D01*
X-70833Y117541D01*
X-70748Y117647D01*
X-48918Y139476D01*
X-45719Y142675D01*
X-45719Y370405D01*
X-48918Y373604D01*
X-70896Y395582D01*
X-74095Y398781D01*
X-84798Y398781D01*
X-84818Y398784D01*
X-84837Y398782D01*
X-84939Y398804D01*
X-85041Y398820D01*
X-85058Y398830D01*
X-85078Y398834D01*
X-85167Y398887D01*
X-85258Y398936D01*
X-85272Y398950D01*
X-85289Y398960D01*
X-85356Y399039D01*
X-85428Y399114D01*
X-85436Y399132D01*
X-85449Y399147D01*
X-85488Y399243D01*
X-85531Y399337D01*
X-85533Y399357D01*
X-85541Y399375D01*
X-85559Y399542D01*
X-85559Y400252D01*
X-87048Y401741D01*
X-89440Y401741D01*
X-89530Y401755D01*
X-89621Y401763D01*
X-89651Y401775D01*
X-89683Y401780D01*
X-89764Y401823D01*
X-89847Y401859D01*
X-89880Y401885D01*
X-89900Y401896D01*
X-89922Y401919D01*
X-89978Y401964D01*
X-99495Y411481D01*
X-175380Y411481D01*
X-175470Y411495D01*
X-175561Y411503D01*
X-175591Y411515D01*
X-175623Y411520D01*
X-175704Y411563D01*
X-175787Y411599D01*
X-175820Y411625D01*
X-175840Y411636D01*
X-175862Y411659D01*
X-175918Y411704D01*
X-185196Y420982D01*
X-185249Y421055D01*
X-185309Y421125D01*
X-185321Y421155D01*
X-185340Y421181D01*
X-185367Y421268D01*
X-185401Y421353D01*
X-185405Y421394D01*
X-185412Y421416D01*
X-185411Y421449D01*
X-185419Y421520D01*
X-185419Y424739D01*
X-185408Y424810D01*
X-185406Y424882D01*
X-185388Y424931D01*
X-185380Y424982D01*
X-185346Y425045D01*
X-185321Y425113D01*
X-185289Y425153D01*
X-185264Y425199D01*
X-185212Y425249D01*
X-185168Y425305D01*
X-185124Y425333D01*
X-185086Y425369D01*
X-185021Y425399D01*
X-184961Y425438D01*
X-184910Y425451D01*
X-184863Y425472D01*
X-184792Y425480D01*
X-184722Y425498D01*
X-184670Y425494D01*
X-184619Y425500D01*
X-184548Y425484D01*
X-184477Y425479D01*
X-184429Y425458D01*
X-184378Y425447D01*
X-184317Y425411D01*
X-184251Y425382D01*
X-184195Y425338D01*
X-184167Y425321D01*
X-184152Y425303D01*
X-184120Y425278D01*
X-182944Y424102D01*
X-179606Y422719D01*
X-175994Y422719D01*
X-172656Y424102D01*
X-170102Y426656D01*
X-168719Y429994D01*
X-168719Y433380D01*
X-168705Y433470D01*
X-168697Y433561D01*
X-168685Y433591D01*
X-168680Y433623D01*
X-168637Y433704D01*
X-168601Y433787D01*
X-168575Y433820D01*
X-168564Y433840D01*
X-168541Y433862D01*
X-168496Y433918D01*
X-122144Y480271D01*
X-122128Y480283D01*
X-122115Y480298D01*
X-122028Y480354D01*
X-121944Y480414D01*
X-121925Y480420D01*
X-121908Y480431D01*
X-121808Y480456D01*
X-121709Y480487D01*
X-121689Y480486D01*
X-121670Y480491D01*
X-121567Y480483D01*
X-121463Y480480D01*
X-121444Y480474D01*
X-121425Y480472D01*
X-121330Y480432D01*
X-121232Y480396D01*
X-121216Y480384D01*
X-121198Y480376D01*
X-121067Y480271D01*
X-120010Y479214D01*
X-116305Y477679D01*
X-115544Y477679D01*
X-115473Y477668D01*
X-115401Y477666D01*
X-115352Y477648D01*
X-115301Y477640D01*
X-115238Y477606D01*
X-115170Y477581D01*
X-115130Y477549D01*
X-115084Y477524D01*
X-115034Y477472D01*
X-114978Y477428D01*
X-114950Y477384D01*
X-114914Y477346D01*
X-114884Y477281D01*
X-114845Y477221D01*
X-114833Y477170D01*
X-114811Y477123D01*
X-114803Y477052D01*
X-114785Y476982D01*
X-114789Y476930D01*
X-114784Y476879D01*
X-114799Y476808D01*
X-114804Y476737D01*
X-114825Y476689D01*
X-114836Y476638D01*
X-114873Y476577D01*
X-114901Y476511D01*
X-114945Y476455D01*
X-114962Y476427D01*
X-114980Y476412D01*
X-115005Y476380D01*
X-150282Y441104D01*
X-150355Y441051D01*
X-150425Y440991D01*
X-150455Y440979D01*
X-150481Y440960D01*
X-150568Y440933D01*
X-150653Y440899D01*
X-150694Y440895D01*
X-150716Y440888D01*
X-150749Y440889D01*
X-150820Y440881D01*
X-154206Y440881D01*
X-157544Y439498D01*
X-160098Y436944D01*
X-161481Y433606D01*
X-161481Y429994D01*
X-160098Y426656D01*
X-157544Y424102D01*
X-154206Y422719D01*
X-150594Y422719D01*
X-147256Y424102D01*
X-144702Y426656D01*
X-143319Y429994D01*
X-143319Y433380D01*
X-143305Y433470D01*
X-143297Y433561D01*
X-143285Y433591D01*
X-143280Y433623D01*
X-143237Y433704D01*
X-143201Y433787D01*
X-143175Y433820D01*
X-143164Y433840D01*
X-143141Y433862D01*
X-143096Y433918D01*
X-96744Y480271D01*
X-96728Y480283D01*
X-96715Y480298D01*
X-96628Y480354D01*
X-96544Y480414D01*
X-96525Y480420D01*
X-96508Y480431D01*
X-96408Y480456D01*
X-96309Y480487D01*
X-96289Y480486D01*
X-96270Y480491D01*
X-96167Y480483D01*
X-96063Y480480D01*
X-96044Y480474D01*
X-96025Y480472D01*
X-95930Y480432D01*
X-95832Y480396D01*
X-95816Y480384D01*
X-95798Y480376D01*
X-95667Y480271D01*
X-94610Y479214D01*
X-90905Y477679D01*
X-90144Y477679D01*
X-90073Y477668D01*
X-90001Y477666D01*
X-89952Y477648D01*
X-89901Y477640D01*
X-89838Y477606D01*
X-89770Y477581D01*
X-89730Y477549D01*
X-89684Y477524D01*
X-89634Y477472D01*
X-89578Y477428D01*
X-89550Y477384D01*
X-89514Y477346D01*
X-89484Y477281D01*
X-89445Y477221D01*
X-89433Y477170D01*
X-89411Y477123D01*
X-89403Y477052D01*
X-89385Y476982D01*
X-89389Y476930D01*
X-89384Y476879D01*
X-89399Y476808D01*
X-89404Y476737D01*
X-89425Y476689D01*
X-89436Y476638D01*
X-89473Y476577D01*
X-89501Y476511D01*
X-89545Y476455D01*
X-89562Y476427D01*
X-89580Y476412D01*
X-89605Y476380D01*
X-124882Y441104D01*
X-124955Y441051D01*
X-125025Y440991D01*
X-125055Y440979D01*
X-125081Y440960D01*
X-125168Y440933D01*
X-125253Y440899D01*
X-125294Y440895D01*
X-125316Y440888D01*
X-125349Y440889D01*
X-125420Y440881D01*
X-128806Y440881D01*
X-132144Y439498D01*
X-134698Y436944D01*
X-136081Y433606D01*
X-136081Y429994D01*
X-134698Y426656D01*
X-132144Y424102D01*
X-128806Y422719D01*
X-125194Y422719D01*
X-121856Y424102D01*
X-119302Y426656D01*
X-117919Y429994D01*
X-117919Y433380D01*
X-117905Y433470D01*
X-117897Y433561D01*
X-117885Y433591D01*
X-117880Y433623D01*
X-117837Y433704D01*
X-117801Y433787D01*
X-117775Y433820D01*
X-117764Y433840D01*
X-117741Y433862D01*
X-117696Y433918D01*
X-71344Y480271D01*
X-71328Y480283D01*
X-71315Y480298D01*
X-71228Y480354D01*
X-71144Y480414D01*
X-71125Y480420D01*
X-71108Y480431D01*
X-71008Y480456D01*
X-70909Y480487D01*
X-70889Y480486D01*
X-70870Y480491D01*
X-70767Y480483D01*
X-70663Y480480D01*
X-70644Y480474D01*
X-70625Y480472D01*
X-70530Y480432D01*
X-70432Y480396D01*
X-70416Y480384D01*
X-70398Y480376D01*
X-70267Y480271D01*
X-69210Y479214D01*
X-65505Y477679D01*
X-64744Y477679D01*
X-64673Y477668D01*
X-64601Y477666D01*
X-64552Y477648D01*
X-64501Y477640D01*
X-64438Y477606D01*
X-64370Y477581D01*
X-64330Y477549D01*
X-64284Y477524D01*
X-64234Y477472D01*
X-64178Y477428D01*
X-64150Y477384D01*
X-64114Y477346D01*
X-64084Y477281D01*
X-64045Y477221D01*
X-64033Y477170D01*
X-64011Y477123D01*
X-64003Y477052D01*
X-63985Y476982D01*
X-63989Y476930D01*
X-63984Y476879D01*
X-63999Y476808D01*
X-64004Y476737D01*
X-64025Y476689D01*
X-64036Y476638D01*
X-64073Y476577D01*
X-64101Y476511D01*
X-64145Y476455D01*
X-64162Y476427D01*
X-64180Y476412D01*
X-64205Y476380D01*
X-99482Y441104D01*
X-99555Y441051D01*
X-99625Y440991D01*
X-99655Y440979D01*
X-99681Y440960D01*
X-99768Y440933D01*
X-99853Y440899D01*
X-99894Y440895D01*
X-99916Y440888D01*
X-99949Y440889D01*
X-100020Y440881D01*
X-103406Y440881D01*
X-106744Y439498D01*
X-109298Y436944D01*
X-110681Y433606D01*
X-110681Y429994D01*
X-109298Y426656D01*
X-106744Y424102D01*
X-103406Y422719D01*
X-99794Y422719D01*
X-96456Y424102D01*
X-93902Y426656D01*
X-92519Y429994D01*
X-92519Y433380D01*
X-92505Y433470D01*
X-92497Y433561D01*
X-92485Y433591D01*
X-92480Y433623D01*
X-92437Y433704D01*
X-92401Y433787D01*
X-92375Y433820D01*
X-92364Y433840D01*
X-92341Y433862D01*
X-92296Y433918D01*
X-45944Y480271D01*
X-45928Y480283D01*
X-45915Y480298D01*
X-45828Y480354D01*
X-45744Y480414D01*
X-45725Y480420D01*
X-45708Y480431D01*
X-45608Y480456D01*
X-45509Y480487D01*
X-45489Y480486D01*
X-45470Y480491D01*
X-45367Y480483D01*
X-45263Y480480D01*
X-45244Y480474D01*
X-45225Y480472D01*
X-45130Y480432D01*
X-45032Y480396D01*
X-45016Y480384D01*
X-44998Y480376D01*
X-44867Y480271D01*
X-43810Y479214D01*
X-40105Y477679D01*
X-36095Y477679D01*
X-32390Y479214D01*
X-29554Y482050D01*
X-28019Y485755D01*
X-28019Y504845D01*
X-29554Y508550D01*
X-32390Y511386D01*
X-36095Y512921D01*
X-40105Y512921D01*
X-43810Y511386D01*
X-46646Y508550D01*
X-48181Y504845D01*
X-48181Y492720D01*
X-48195Y492630D01*
X-48203Y492539D01*
X-48215Y492509D01*
X-48220Y492477D01*
X-48263Y492396D01*
X-48299Y492313D01*
X-48325Y492280D01*
X-48336Y492260D01*
X-48359Y492238D01*
X-48404Y492182D01*
X-52120Y488465D01*
X-52178Y488424D01*
X-52230Y488374D01*
X-52277Y488352D01*
X-52319Y488322D01*
X-52388Y488301D01*
X-52453Y488271D01*
X-52505Y488265D01*
X-52555Y488250D01*
X-52626Y488251D01*
X-52697Y488244D01*
X-52748Y488255D01*
X-52800Y488256D01*
X-52868Y488281D01*
X-52938Y488296D01*
X-52983Y488323D01*
X-53031Y488340D01*
X-53087Y488385D01*
X-53149Y488422D01*
X-53183Y488462D01*
X-53223Y488494D01*
X-53262Y488554D01*
X-53309Y488609D01*
X-53328Y488657D01*
X-53356Y488701D01*
X-53374Y488770D01*
X-53401Y488837D01*
X-53409Y488908D01*
X-53417Y488940D01*
X-53415Y488963D01*
X-53419Y489004D01*
X-53419Y504845D01*
X-54954Y508550D01*
X-57790Y511386D01*
X-61495Y512921D01*
X-65505Y512921D01*
X-69210Y511386D01*
X-72046Y508550D01*
X-73581Y504845D01*
X-73581Y492720D01*
X-73595Y492630D01*
X-73603Y492539D01*
X-73615Y492509D01*
X-73620Y492477D01*
X-73663Y492396D01*
X-73699Y492313D01*
X-73725Y492280D01*
X-73736Y492260D01*
X-73759Y492238D01*
X-73804Y492182D01*
X-77520Y488465D01*
X-77578Y488424D01*
X-77630Y488374D01*
X-77677Y488352D01*
X-77719Y488322D01*
X-77788Y488301D01*
X-77853Y488271D01*
X-77905Y488265D01*
X-77955Y488250D01*
X-78026Y488251D01*
X-78097Y488244D01*
X-78148Y488255D01*
X-78200Y488256D01*
X-78268Y488281D01*
X-78338Y488296D01*
X-78383Y488323D01*
X-78431Y488340D01*
X-78487Y488385D01*
X-78549Y488422D01*
X-78583Y488462D01*
X-78623Y488494D01*
X-78662Y488554D01*
X-78709Y488609D01*
X-78728Y488657D01*
X-78756Y488701D01*
X-78774Y488770D01*
X-78801Y488837D01*
X-78809Y488908D01*
X-78817Y488940D01*
X-78815Y488963D01*
X-78819Y489004D01*
X-78819Y504845D01*
X-80354Y508550D01*
X-83190Y511386D01*
X-86895Y512921D01*
X-90905Y512921D01*
X-94610Y511386D01*
X-97446Y508550D01*
X-98981Y504845D01*
X-98981Y492720D01*
X-98995Y492630D01*
X-99003Y492539D01*
X-99015Y492509D01*
X-99020Y492477D01*
X-99063Y492396D01*
X-99099Y492313D01*
X-99125Y492280D01*
X-99136Y492260D01*
X-99159Y492238D01*
X-99204Y492182D01*
X-102920Y488465D01*
X-102978Y488424D01*
X-103030Y488374D01*
X-103077Y488352D01*
X-103119Y488322D01*
X-103188Y488301D01*
X-103253Y488271D01*
X-103305Y488265D01*
X-103355Y488250D01*
X-103426Y488251D01*
X-103497Y488244D01*
X-103548Y488255D01*
X-103600Y488256D01*
X-103668Y488281D01*
X-103738Y488296D01*
X-103783Y488323D01*
X-103831Y488340D01*
X-103887Y488385D01*
X-103949Y488422D01*
X-103983Y488462D01*
X-104023Y488494D01*
X-104062Y488554D01*
X-104109Y488609D01*
X-104128Y488657D01*
X-104156Y488701D01*
X-104174Y488770D01*
X-104201Y488837D01*
X-104209Y488908D01*
X-104217Y488940D01*
X-104215Y488963D01*
X-104219Y489004D01*
X-104219Y504845D01*
X-105754Y508550D01*
X-108590Y511386D01*
X-112295Y512921D01*
X-116305Y512921D01*
X-120010Y511386D01*
X-122846Y508550D01*
X-124381Y504845D01*
X-124381Y492720D01*
X-124395Y492630D01*
X-124403Y492539D01*
X-124415Y492509D01*
X-124420Y492477D01*
X-124463Y492396D01*
X-124499Y492313D01*
X-124525Y492280D01*
X-124536Y492260D01*
X-124559Y492238D01*
X-124604Y492182D01*
X-175682Y441104D01*
X-175755Y441051D01*
X-175825Y440991D01*
X-175855Y440979D01*
X-175881Y440960D01*
X-175968Y440933D01*
X-176053Y440899D01*
X-176094Y440895D01*
X-176116Y440888D01*
X-176149Y440889D01*
X-176220Y440881D01*
X-179606Y440881D01*
X-182944Y439498D01*
X-184120Y438322D01*
X-184178Y438281D01*
X-184230Y438231D01*
X-184277Y438209D01*
X-184319Y438179D01*
X-184388Y438158D01*
X-184453Y438128D01*
X-184505Y438122D01*
X-184555Y438106D01*
X-184626Y438108D01*
X-184697Y438100D01*
X-184748Y438111D01*
X-184800Y438113D01*
X-184868Y438137D01*
X-184938Y438153D01*
X-184983Y438179D01*
X-185031Y438197D01*
X-185087Y438242D01*
X-185149Y438279D01*
X-185183Y438318D01*
X-185223Y438351D01*
X-185262Y438411D01*
X-185309Y438466D01*
X-185328Y438514D01*
X-185356Y438558D01*
X-185374Y438627D01*
X-185401Y438694D01*
X-185409Y438765D01*
X-185417Y438796D01*
X-185415Y438820D01*
X-185419Y438861D01*
X-185419Y442080D01*
X-185405Y442170D01*
X-185397Y442261D01*
X-185385Y442291D01*
X-185380Y442323D01*
X-185337Y442404D01*
X-185301Y442487D01*
X-185275Y442520D01*
X-185264Y442540D01*
X-185241Y442562D01*
X-185196Y442618D01*
X-150519Y477296D01*
X-150518Y477296D01*
X-150059Y477756D01*
X-150006Y477794D01*
X-149959Y477840D01*
X-149886Y477880D01*
X-149859Y477899D01*
X-149841Y477905D01*
X-149812Y477921D01*
X-146690Y479214D01*
X-143854Y482050D01*
X-142319Y485755D01*
X-142319Y504845D01*
X-143854Y508550D01*
X-146690Y511386D01*
X-150395Y512921D01*
X-154405Y512921D01*
X-158110Y511386D01*
X-160946Y508550D01*
X-162481Y504845D01*
X-162481Y485755D01*
X-160903Y481947D01*
X-160877Y481833D01*
X-160848Y481719D01*
X-160849Y481713D01*
X-160847Y481707D01*
X-160858Y481590D01*
X-160867Y481474D01*
X-160870Y481468D01*
X-160870Y481462D01*
X-160918Y481355D01*
X-160963Y481248D01*
X-160968Y481242D01*
X-160970Y481237D01*
X-160983Y481224D01*
X-161068Y481117D01*
X-195581Y446605D01*
X-195581Y416995D01*
X-179905Y401319D01*
X-118402Y401319D01*
X-118382Y401316D01*
X-118363Y401318D01*
X-118261Y401296D01*
X-118159Y401280D01*
X-118142Y401270D01*
X-118122Y401266D01*
X-118033Y401213D01*
X-117942Y401164D01*
X-117928Y401150D01*
X-117911Y401140D01*
X-117844Y401061D01*
X-117772Y400986D01*
X-117764Y400968D01*
X-117751Y400953D01*
X-117712Y400857D01*
X-117669Y400763D01*
X-117667Y400743D01*
X-117659Y400725D01*
X-117641Y400558D01*
X-117641Y396367D01*
X-117644Y396347D01*
X-117642Y396328D01*
X-117664Y396226D01*
X-117680Y396124D01*
X-117690Y396107D01*
X-117694Y396087D01*
X-117747Y395998D01*
X-117796Y395907D01*
X-117810Y395893D01*
X-117820Y395876D01*
X-117899Y395809D01*
X-117974Y395737D01*
X-117992Y395729D01*
X-118007Y395716D01*
X-118103Y395677D01*
X-118197Y395634D01*
X-118217Y395632D01*
X-118235Y395624D01*
X-118402Y395606D01*
X-122022Y395606D01*
X-122112Y395620D01*
X-122203Y395628D01*
X-122233Y395640D01*
X-122265Y395645D01*
X-122346Y395688D01*
X-122430Y395724D01*
X-122462Y395750D01*
X-122482Y395761D01*
X-122505Y395784D01*
X-122561Y395829D01*
X-122592Y395860D01*
X-137904Y395860D01*
X-137935Y395829D01*
X-138009Y395776D01*
X-138079Y395716D01*
X-138109Y395704D01*
X-138135Y395685D01*
X-138222Y395658D01*
X-138307Y395624D01*
X-138348Y395620D01*
X-138370Y395613D01*
X-138402Y395614D01*
X-138474Y395606D01*
X-184905Y395606D01*
X-184995Y395620D01*
X-185086Y395628D01*
X-185116Y395640D01*
X-185148Y395645D01*
X-185229Y395688D01*
X-185312Y395724D01*
X-185345Y395750D01*
X-185365Y395761D01*
X-185387Y395784D01*
X-185443Y395829D01*
X-197896Y408282D01*
X-197949Y408355D01*
X-198009Y408425D01*
X-198021Y408455D01*
X-198040Y408481D01*
X-198067Y408568D01*
X-198101Y408653D01*
X-198105Y408694D01*
X-198112Y408716D01*
X-198111Y408749D01*
X-198119Y408820D01*
X-198119Y454780D01*
X-198105Y454870D01*
X-198097Y454961D01*
X-198085Y454991D01*
X-198080Y455023D01*
X-198037Y455104D01*
X-198001Y455187D01*
X-197975Y455220D01*
X-197964Y455240D01*
X-197941Y455262D01*
X-197896Y455318D01*
X-175919Y477296D01*
X-175918Y477296D01*
X-175459Y477756D01*
X-175406Y477794D01*
X-175359Y477840D01*
X-175286Y477880D01*
X-175259Y477899D01*
X-175241Y477905D01*
X-175212Y477921D01*
X-172090Y479214D01*
X-169254Y482050D01*
X-167719Y485755D01*
X-167719Y504845D01*
X-169254Y508550D01*
X-172090Y511386D01*
X-175795Y512921D01*
X-179805Y512921D01*
X-183510Y511386D01*
X-186346Y508550D01*
X-187881Y504845D01*
X-187881Y485755D01*
X-186303Y481947D01*
X-186277Y481833D01*
X-186248Y481719D01*
X-186249Y481713D01*
X-186247Y481707D01*
X-186258Y481590D01*
X-186267Y481474D01*
X-186270Y481468D01*
X-186270Y481462D01*
X-186318Y481355D01*
X-186363Y481248D01*
X-186368Y481242D01*
X-186370Y481237D01*
X-186383Y481224D01*
X-186468Y481117D01*
X-208281Y459305D01*
X-208281Y404295D01*
X-189430Y385444D01*
X-157957Y385444D01*
X-157840Y385425D01*
X-157722Y385407D01*
X-157718Y385405D01*
X-157714Y385405D01*
X-157608Y385349D01*
X-157503Y385294D01*
X-157500Y385291D01*
X-157497Y385289D01*
X-157414Y385202D01*
X-157332Y385118D01*
X-157330Y385114D01*
X-157327Y385111D01*
X-157277Y385003D01*
X-157226Y384896D01*
X-157225Y384892D01*
X-157224Y384888D01*
X-157211Y384770D01*
X-157196Y384652D01*
X-157197Y384647D01*
X-157197Y384644D01*
X-157199Y384630D01*
X-157221Y384486D01*
X-157317Y384128D01*
X-157317Y382396D01*
X-148808Y382396D01*
X-148788Y382393D01*
X-148768Y382395D01*
X-148667Y382373D01*
X-148565Y382357D01*
X-148547Y382347D01*
X-148528Y382343D01*
X-148439Y382290D01*
X-148348Y382241D01*
X-148334Y382227D01*
X-148317Y382217D01*
X-148249Y382138D01*
X-148178Y382063D01*
X-148170Y382045D01*
X-148144Y382095D01*
X-148129Y382109D01*
X-148119Y382126D01*
X-148040Y382193D01*
X-147965Y382265D01*
X-147947Y382273D01*
X-147932Y382286D01*
X-147836Y382325D01*
X-147742Y382368D01*
X-147723Y382370D01*
X-147704Y382378D01*
X-147537Y382396D01*
X-139028Y382396D01*
X-139028Y384128D01*
X-139092Y384369D01*
X-139097Y384417D01*
X-139111Y384463D01*
X-139109Y384539D01*
X-139117Y384614D01*
X-139106Y384661D01*
X-139105Y384709D01*
X-139079Y384780D01*
X-139062Y384854D01*
X-139037Y384895D01*
X-139020Y384940D01*
X-138973Y384999D01*
X-138933Y385064D01*
X-138897Y385094D01*
X-138867Y385132D01*
X-138803Y385173D01*
X-138745Y385221D01*
X-138700Y385239D01*
X-138660Y385265D01*
X-138586Y385283D01*
X-138516Y385311D01*
X-138468Y385313D01*
X-138421Y385325D01*
X-138346Y385319D01*
X-138270Y385323D01*
X-138224Y385309D01*
X-138176Y385306D01*
X-138106Y385276D01*
X-138033Y385255D01*
X-137994Y385228D01*
X-137950Y385209D01*
X-137926Y385190D01*
X-122592Y385190D01*
X-122561Y385221D01*
X-122487Y385274D01*
X-122417Y385334D01*
X-122387Y385346D01*
X-122361Y385365D01*
X-122274Y385392D01*
X-122189Y385426D01*
X-122148Y385430D01*
X-122126Y385437D01*
X-122094Y385436D01*
X-122022Y385444D01*
X-111167Y385444D01*
X-111105Y385489D01*
X-111035Y385549D01*
X-111005Y385561D01*
X-110979Y385580D01*
X-110892Y385607D01*
X-110807Y385641D01*
X-110766Y385645D01*
X-110744Y385652D01*
X-110711Y385651D01*
X-110640Y385659D01*
X-104048Y385659D01*
X-102559Y387148D01*
X-102559Y398336D01*
X-102548Y398407D01*
X-102546Y398479D01*
X-102528Y398528D01*
X-102520Y398579D01*
X-102486Y398642D01*
X-102461Y398710D01*
X-102429Y398750D01*
X-102404Y398796D01*
X-102353Y398846D01*
X-102308Y398902D01*
X-102264Y398930D01*
X-102226Y398966D01*
X-102161Y398996D01*
X-102101Y399035D01*
X-102050Y399047D01*
X-102003Y399069D01*
X-101932Y399077D01*
X-101862Y399095D01*
X-101810Y399091D01*
X-101759Y399096D01*
X-101688Y399081D01*
X-101617Y399076D01*
X-101569Y399055D01*
X-101518Y399044D01*
X-101457Y399007D01*
X-101391Y398979D01*
X-101335Y398935D01*
X-101307Y398918D01*
X-101292Y398900D01*
X-101260Y398874D01*
X-100864Y398478D01*
X-100810Y398404D01*
X-100751Y398335D01*
X-100739Y398305D01*
X-100720Y398279D01*
X-100693Y398192D01*
X-100659Y398107D01*
X-100655Y398066D01*
X-100648Y398044D01*
X-100649Y398011D01*
X-100641Y397940D01*
X-100641Y387148D01*
X-99152Y385659D01*
X-87048Y385659D01*
X-85559Y387148D01*
X-85559Y387858D01*
X-85556Y387878D01*
X-85558Y387897D01*
X-85536Y387999D01*
X-85520Y388101D01*
X-85510Y388118D01*
X-85506Y388138D01*
X-85453Y388227D01*
X-85404Y388318D01*
X-85390Y388332D01*
X-85380Y388349D01*
X-85301Y388416D01*
X-85226Y388488D01*
X-85208Y388496D01*
X-85193Y388509D01*
X-85097Y388548D01*
X-85003Y388591D01*
X-84983Y388593D01*
X-84965Y388601D01*
X-84798Y388619D01*
X-78620Y388619D01*
X-78530Y388605D01*
X-78439Y388597D01*
X-78409Y388585D01*
X-78377Y388580D01*
X-78296Y388537D01*
X-78213Y388501D01*
X-78180Y388475D01*
X-78160Y388464D01*
X-78138Y388441D01*
X-78082Y388396D01*
X-56104Y366418D01*
X-56051Y366345D01*
X-55991Y366275D01*
X-55979Y366245D01*
X-55960Y366219D01*
X-55933Y366132D01*
X-55899Y366047D01*
X-55895Y366006D01*
X-55888Y365984D01*
X-55889Y365951D01*
X-55881Y365880D01*
X-55881Y147200D01*
X-55895Y147110D01*
X-55903Y147019D01*
X-55915Y146989D01*
X-55920Y146957D01*
X-55963Y146876D01*
X-55999Y146793D01*
X-56025Y146760D01*
X-56036Y146740D01*
X-56059Y146718D01*
X-56066Y146709D01*
X-56074Y146695D01*
X-56083Y146687D01*
X-56104Y146662D01*
X-77933Y124832D01*
X-78026Y124765D01*
X-78121Y124694D01*
X-78128Y124693D01*
X-78133Y124689D01*
X-78243Y124655D01*
X-78355Y124618D01*
X-78362Y124618D01*
X-78368Y124617D01*
X-78484Y124620D01*
X-78601Y124621D01*
X-78608Y124623D01*
X-78613Y124623D01*
X-78631Y124629D01*
X-78762Y124667D01*
X-79183Y124842D01*
X-83377Y124842D01*
X-87251Y123237D01*
X-90217Y120271D01*
X-90391Y119851D01*
X-90453Y119751D01*
X-90513Y119651D01*
X-90517Y119647D01*
X-90521Y119642D01*
X-90611Y119567D01*
X-90700Y119491D01*
X-90705Y119489D01*
X-90710Y119485D01*
X-90819Y119443D01*
X-90928Y119399D01*
X-90935Y119398D01*
X-90940Y119397D01*
X-90958Y119396D01*
X-91094Y119381D01*
X-131680Y119381D01*
X-131770Y119395D01*
X-131861Y119403D01*
X-131891Y119415D01*
X-131923Y119420D01*
X-132004Y119463D01*
X-132087Y119499D01*
X-132120Y119525D01*
X-132140Y119536D01*
X-132162Y119559D01*
X-132218Y119604D01*
X-147101Y134487D01*
X-147113Y134503D01*
X-147129Y134515D01*
X-147159Y134562D01*
X-147173Y134578D01*
X-147186Y134604D01*
X-147245Y134686D01*
X-147251Y134705D01*
X-147262Y134722D01*
X-147287Y134823D01*
X-147317Y134921D01*
X-147317Y134941D01*
X-147322Y134961D01*
X-147314Y135064D01*
X-147311Y135167D01*
X-147304Y135186D01*
X-147303Y135206D01*
X-147262Y135301D01*
X-147227Y135398D01*
X-147214Y135414D01*
X-147206Y135432D01*
X-147101Y135563D01*
X-144468Y138196D01*
X-142559Y142805D01*
X-142559Y147795D01*
X-144468Y152404D01*
X-147101Y155037D01*
X-147114Y155054D01*
X-147130Y155067D01*
X-147159Y155113D01*
X-147177Y155131D01*
X-147191Y155162D01*
X-147205Y155180D01*
X-147209Y155185D01*
X-147210Y155187D01*
X-147245Y155237D01*
X-147251Y155257D01*
X-147263Y155274D01*
X-147287Y155374D01*
X-147295Y155399D01*
X-147301Y155413D01*
X-147302Y155420D01*
X-147317Y155472D01*
X-147317Y155493D01*
X-147322Y155513D01*
X-147318Y155566D01*
X-147319Y155580D01*
X-147319Y169723D01*
X-147305Y169813D01*
X-147297Y169904D01*
X-147285Y169934D01*
X-147280Y169966D01*
X-147237Y170047D01*
X-147201Y170131D01*
X-147175Y170163D01*
X-147164Y170183D01*
X-147141Y170206D01*
X-147096Y170262D01*
X-144702Y172656D01*
X-143319Y175994D01*
X-143319Y179606D01*
X-144702Y182944D01*
X-147256Y185498D01*
X-150594Y186881D01*
X-154206Y186881D01*
X-157544Y185498D01*
X-160098Y182944D01*
X-161481Y179606D01*
X-161481Y175994D01*
X-160098Y172656D01*
X-157704Y170262D01*
X-157651Y170188D01*
X-157591Y170118D01*
X-157579Y170088D01*
X-157560Y170062D01*
X-157533Y169975D01*
X-157499Y169890D01*
X-157495Y169849D01*
X-157488Y169827D01*
X-157489Y169795D01*
X-157481Y169723D01*
X-157481Y160420D01*
X-157495Y160330D01*
X-157503Y160239D01*
X-157515Y160209D01*
X-157520Y160177D01*
X-157563Y160096D01*
X-157599Y160012D01*
X-157625Y159980D01*
X-157636Y159960D01*
X-157659Y159937D01*
X-157704Y159882D01*
X-159522Y158064D01*
X-159595Y158011D01*
X-159665Y157951D01*
X-159695Y157939D01*
X-159721Y157920D01*
X-159808Y157893D01*
X-159893Y157859D01*
X-159934Y157855D01*
X-159956Y157848D01*
X-159989Y157849D01*
X-160060Y157841D01*
X-177595Y157841D01*
X-182204Y155932D01*
X-185732Y152404D01*
X-186375Y150851D01*
X-186436Y150751D01*
X-186496Y150651D01*
X-186501Y150647D01*
X-186504Y150642D01*
X-186595Y150567D01*
X-186683Y150491D01*
X-186689Y150489D01*
X-186694Y150485D01*
X-186802Y150443D01*
X-186911Y150399D01*
X-186919Y150398D01*
X-186924Y150397D01*
X-186942Y150396D01*
X-187078Y150381D01*
X-225105Y150381D01*
X-243389Y132096D01*
X-243441Y132059D01*
X-243486Y132014D01*
X-243540Y131988D01*
X-243589Y131953D01*
X-243650Y131934D01*
X-243707Y131906D01*
X-243767Y131898D01*
X-243824Y131880D01*
X-243888Y131882D01*
X-243951Y131874D01*
X-244010Y131885D01*
X-244070Y131887D01*
X-244130Y131909D01*
X-244192Y131921D01*
X-244244Y131950D01*
X-244301Y131971D01*
X-244351Y132011D01*
X-244406Y132043D01*
X-244446Y132087D01*
X-244493Y132125D01*
X-244527Y132179D01*
X-244570Y132226D01*
X-244593Y132281D01*
X-244626Y132332D01*
X-244641Y132394D01*
X-244667Y132452D01*
X-244671Y132512D01*
X-244686Y132570D01*
X-244681Y132634D01*
X-244686Y132698D01*
X-244671Y132756D01*
X-244667Y132815D01*
X-244642Y132874D01*
X-244626Y132936D01*
X-244583Y133012D01*
X-244570Y133042D01*
X-244555Y133061D01*
X-244543Y133082D01*
X-244129Y133651D01*
X-243305Y135270D01*
X-242743Y136998D01*
X-242557Y138177D01*
X-252477Y138177D01*
X-252477Y128257D01*
X-251298Y128443D01*
X-249570Y129005D01*
X-247951Y129829D01*
X-247382Y130243D01*
X-247325Y130272D01*
X-247273Y130309D01*
X-247216Y130327D01*
X-247162Y130354D01*
X-247099Y130363D01*
X-247038Y130382D01*
X-246978Y130380D01*
X-246919Y130388D01*
X-246856Y130377D01*
X-246792Y130375D01*
X-246736Y130355D01*
X-246677Y130344D01*
X-246621Y130313D01*
X-246561Y130291D01*
X-246514Y130253D01*
X-246462Y130224D01*
X-246419Y130177D01*
X-246369Y130137D01*
X-246337Y130087D01*
X-246296Y130042D01*
X-246271Y129984D01*
X-246236Y129930D01*
X-246221Y129872D01*
X-246197Y129817D01*
X-246192Y129753D01*
X-246176Y129692D01*
X-246181Y129632D01*
X-246175Y129572D01*
X-246190Y129510D01*
X-246195Y129446D01*
X-246219Y129391D01*
X-246232Y129333D01*
X-246266Y129279D01*
X-246291Y129220D01*
X-246345Y129153D01*
X-246363Y129124D01*
X-246381Y129108D01*
X-246396Y129089D01*
X-249888Y125597D01*
X-249983Y125529D01*
X-250077Y125459D01*
X-250083Y125457D01*
X-250088Y125454D01*
X-250200Y125419D01*
X-250311Y125383D01*
X-250317Y125383D01*
X-250323Y125381D01*
X-250440Y125384D01*
X-250557Y125385D01*
X-250564Y125387D01*
X-250569Y125388D01*
X-250586Y125394D01*
X-250718Y125432D01*
X-251704Y125841D01*
X-256296Y125841D01*
X-260537Y124084D01*
X-263784Y120837D01*
X-265541Y116596D01*
X-265541Y112004D01*
X-263784Y107763D01*
X-260537Y104516D01*
X-256296Y102759D01*
X-251704Y102759D01*
G37*
%LPD*%
%LPC*%
G36*
X-99794Y168719D02*
X-99794Y168719D01*
X-96456Y170102D01*
X-93902Y172656D01*
X-92519Y175994D01*
X-92519Y179606D01*
X-93902Y182944D01*
X-96456Y185498D01*
X-99794Y186881D01*
X-103180Y186881D01*
X-103270Y186895D01*
X-103361Y186903D01*
X-103391Y186915D01*
X-103423Y186920D01*
X-103504Y186963D01*
X-103587Y186999D01*
X-103620Y187025D01*
X-103640Y187036D01*
X-103662Y187059D01*
X-103718Y187104D01*
X-188395Y271781D01*
X-243104Y271781D01*
X-243219Y271800D01*
X-243335Y271817D01*
X-243341Y271819D01*
X-243347Y271820D01*
X-243450Y271875D01*
X-243554Y271928D01*
X-243559Y271933D01*
X-243564Y271936D01*
X-243644Y272020D01*
X-243727Y272104D01*
X-243730Y272110D01*
X-243734Y272114D01*
X-243742Y272131D01*
X-243808Y272251D01*
X-244216Y273237D01*
X-247463Y276484D01*
X-251704Y278241D01*
X-256296Y278241D01*
X-260537Y276484D01*
X-263784Y273237D01*
X-265541Y268996D01*
X-265541Y264404D01*
X-263784Y260163D01*
X-260537Y256916D01*
X-256296Y255159D01*
X-251704Y255159D01*
X-247463Y256916D01*
X-244216Y260163D01*
X-243808Y261149D01*
X-243746Y261249D01*
X-243686Y261349D01*
X-243681Y261353D01*
X-243678Y261358D01*
X-243588Y261433D01*
X-243499Y261509D01*
X-243493Y261511D01*
X-243488Y261515D01*
X-243380Y261557D01*
X-243271Y261601D01*
X-243263Y261602D01*
X-243259Y261603D01*
X-243241Y261604D01*
X-243104Y261619D01*
X-192920Y261619D01*
X-192830Y261605D01*
X-192739Y261597D01*
X-192709Y261585D01*
X-192677Y261580D01*
X-192596Y261537D01*
X-192513Y261501D01*
X-192480Y261475D01*
X-192460Y261464D01*
X-192438Y261441D01*
X-192382Y261396D01*
X-110904Y179918D01*
X-110851Y179845D01*
X-110791Y179775D01*
X-110779Y179745D01*
X-110760Y179719D01*
X-110733Y179632D01*
X-110699Y179547D01*
X-110695Y179506D01*
X-110688Y179484D01*
X-110689Y179451D01*
X-110681Y179380D01*
X-110681Y175994D01*
X-109298Y172656D01*
X-106744Y170102D01*
X-103406Y168719D01*
X-99794Y168719D01*
G37*
%LPD*%
%LPC*%
G36*
X-125194Y168719D02*
X-125194Y168719D01*
X-121856Y170102D01*
X-119302Y172656D01*
X-117919Y175994D01*
X-117919Y179606D01*
X-119302Y182944D01*
X-121856Y185498D01*
X-125194Y186881D01*
X-128580Y186881D01*
X-128670Y186895D01*
X-128761Y186903D01*
X-128791Y186915D01*
X-128823Y186920D01*
X-128904Y186963D01*
X-128987Y186999D01*
X-129020Y187025D01*
X-129040Y187036D01*
X-129062Y187059D01*
X-129118Y187104D01*
X-188395Y246381D01*
X-243104Y246381D01*
X-243219Y246400D01*
X-243335Y246417D01*
X-243341Y246419D01*
X-243347Y246420D01*
X-243450Y246475D01*
X-243554Y246528D01*
X-243559Y246533D01*
X-243564Y246536D01*
X-243644Y246620D01*
X-243727Y246704D01*
X-243730Y246710D01*
X-243734Y246714D01*
X-243742Y246731D01*
X-243808Y246851D01*
X-244216Y247837D01*
X-247463Y251084D01*
X-251704Y252841D01*
X-256296Y252841D01*
X-260537Y251084D01*
X-263784Y247837D01*
X-265541Y243596D01*
X-265541Y239004D01*
X-263784Y234763D01*
X-260537Y231516D01*
X-256296Y229759D01*
X-251704Y229759D01*
X-247463Y231516D01*
X-244216Y234763D01*
X-243808Y235749D01*
X-243746Y235849D01*
X-243686Y235949D01*
X-243681Y235953D01*
X-243678Y235958D01*
X-243588Y236033D01*
X-243499Y236109D01*
X-243493Y236111D01*
X-243488Y236115D01*
X-243380Y236157D01*
X-243271Y236201D01*
X-243263Y236202D01*
X-243259Y236203D01*
X-243241Y236204D01*
X-243104Y236219D01*
X-192920Y236219D01*
X-192830Y236205D01*
X-192739Y236197D01*
X-192709Y236185D01*
X-192677Y236180D01*
X-192596Y236137D01*
X-192513Y236101D01*
X-192480Y236075D01*
X-192460Y236064D01*
X-192438Y236041D01*
X-192382Y235996D01*
X-136304Y179918D01*
X-136251Y179845D01*
X-136191Y179775D01*
X-136179Y179745D01*
X-136160Y179719D01*
X-136133Y179632D01*
X-136099Y179547D01*
X-136095Y179506D01*
X-136088Y179484D01*
X-136089Y179451D01*
X-136081Y179380D01*
X-136081Y175994D01*
X-134698Y172656D01*
X-132144Y170102D01*
X-128806Y168719D01*
X-125194Y168719D01*
G37*
%LPD*%
%LPC*%
G36*
X-251704Y331359D02*
X-251704Y331359D01*
X-247463Y333116D01*
X-244216Y336363D01*
X-242459Y340604D01*
X-242459Y345196D01*
X-242868Y346182D01*
X-242894Y346295D01*
X-242923Y346409D01*
X-242923Y346416D01*
X-242924Y346422D01*
X-242913Y346538D01*
X-242904Y346655D01*
X-242902Y346660D01*
X-242901Y346667D01*
X-242853Y346775D01*
X-242808Y346881D01*
X-242803Y346887D01*
X-242801Y346891D01*
X-242788Y346905D01*
X-242703Y347012D01*
X-226718Y362996D01*
X-226645Y363049D01*
X-226575Y363109D01*
X-226545Y363121D01*
X-226519Y363140D01*
X-226432Y363167D01*
X-226347Y363201D01*
X-226306Y363205D01*
X-226284Y363212D01*
X-226251Y363211D01*
X-226180Y363219D01*
X-194602Y363219D01*
X-194582Y363216D01*
X-194563Y363218D01*
X-194461Y363196D01*
X-194359Y363180D01*
X-194342Y363170D01*
X-194322Y363166D01*
X-194233Y363113D01*
X-194142Y363064D01*
X-194128Y363050D01*
X-194111Y363040D01*
X-194044Y362961D01*
X-193972Y362886D01*
X-193964Y362868D01*
X-193951Y362853D01*
X-193912Y362757D01*
X-193869Y362663D01*
X-193867Y362643D01*
X-193859Y362625D01*
X-193841Y362458D01*
X-193841Y361748D01*
X-192352Y360259D01*
X-180248Y360259D01*
X-178759Y361748D01*
X-178759Y374852D01*
X-180248Y376341D01*
X-192352Y376341D01*
X-193841Y374852D01*
X-193841Y374142D01*
X-193844Y374122D01*
X-193842Y374103D01*
X-193864Y374001D01*
X-193880Y373899D01*
X-193890Y373882D01*
X-193894Y373862D01*
X-193947Y373773D01*
X-193996Y373682D01*
X-194010Y373668D01*
X-194020Y373651D01*
X-194099Y373584D01*
X-194174Y373512D01*
X-194192Y373504D01*
X-194207Y373491D01*
X-194303Y373452D01*
X-194397Y373409D01*
X-194417Y373407D01*
X-194435Y373399D01*
X-194602Y373381D01*
X-230705Y373381D01*
X-242849Y361236D01*
X-242928Y361179D01*
X-243003Y361117D01*
X-243028Y361108D01*
X-243049Y361093D01*
X-243142Y361064D01*
X-243233Y361029D01*
X-243259Y361028D01*
X-243284Y361020D01*
X-243381Y361023D01*
X-243479Y361019D01*
X-243504Y361026D01*
X-243530Y361027D01*
X-243621Y361060D01*
X-243715Y361087D01*
X-243736Y361102D01*
X-243761Y361111D01*
X-243837Y361172D01*
X-243917Y361227D01*
X-243932Y361248D01*
X-243953Y361265D01*
X-244006Y361347D01*
X-244064Y361425D01*
X-244072Y361450D01*
X-244086Y361472D01*
X-244110Y361566D01*
X-244140Y361659D01*
X-244140Y361685D01*
X-244146Y361710D01*
X-244138Y361807D01*
X-244138Y361905D01*
X-244128Y361936D01*
X-244127Y361955D01*
X-244114Y361986D01*
X-244091Y362066D01*
X-242459Y366004D01*
X-242459Y370596D01*
X-244216Y374837D01*
X-247463Y378084D01*
X-251704Y379841D01*
X-256296Y379841D01*
X-260537Y378084D01*
X-263784Y374837D01*
X-265541Y370596D01*
X-265541Y366004D01*
X-263784Y361763D01*
X-260537Y358516D01*
X-256296Y356759D01*
X-251704Y356759D01*
X-247766Y358391D01*
X-247671Y358413D01*
X-247578Y358442D01*
X-247552Y358441D01*
X-247526Y358447D01*
X-247429Y358438D01*
X-247332Y358435D01*
X-247307Y358426D01*
X-247281Y358424D01*
X-247192Y358384D01*
X-247101Y358351D01*
X-247080Y358334D01*
X-247057Y358324D01*
X-246985Y358258D01*
X-246909Y358197D01*
X-246895Y358175D01*
X-246875Y358157D01*
X-246828Y358072D01*
X-246776Y357990D01*
X-246769Y357965D01*
X-246757Y357942D01*
X-246740Y357846D01*
X-246716Y357752D01*
X-246718Y357726D01*
X-246713Y357700D01*
X-246727Y357603D01*
X-246735Y357506D01*
X-246745Y357482D01*
X-246749Y357457D01*
X-246793Y357370D01*
X-246831Y357280D01*
X-246852Y357255D01*
X-246860Y357237D01*
X-246884Y357214D01*
X-246936Y357149D01*
X-249888Y354197D01*
X-249983Y354129D01*
X-250077Y354059D01*
X-250083Y354057D01*
X-250088Y354054D01*
X-250200Y354019D01*
X-250311Y353983D01*
X-250317Y353983D01*
X-250323Y353981D01*
X-250440Y353984D01*
X-250557Y353985D01*
X-250564Y353987D01*
X-250569Y353988D01*
X-250586Y353994D01*
X-250718Y354032D01*
X-251704Y354441D01*
X-256296Y354441D01*
X-260537Y352684D01*
X-263784Y349437D01*
X-265541Y345196D01*
X-265541Y340604D01*
X-263784Y336363D01*
X-260537Y333116D01*
X-256296Y331359D01*
X-251704Y331359D01*
G37*
%LPD*%
%LPC*%
G36*
X-163248Y360259D02*
X-163248Y360259D01*
X-161759Y361748D01*
X-161759Y365633D01*
X-161756Y365653D01*
X-161758Y365672D01*
X-161736Y365774D01*
X-161720Y365876D01*
X-161710Y365893D01*
X-161706Y365913D01*
X-161653Y366002D01*
X-161604Y366093D01*
X-161590Y366107D01*
X-161580Y366124D01*
X-161501Y366191D01*
X-161426Y366263D01*
X-161408Y366271D01*
X-161393Y366284D01*
X-161297Y366323D01*
X-161203Y366366D01*
X-161183Y366368D01*
X-161165Y366376D01*
X-160998Y366394D01*
X-138474Y366394D01*
X-138384Y366380D01*
X-138293Y366372D01*
X-138263Y366360D01*
X-138231Y366355D01*
X-138150Y366312D01*
X-138066Y366276D01*
X-138034Y366250D01*
X-138014Y366239D01*
X-137991Y366216D01*
X-137935Y366171D01*
X-137904Y366140D01*
X-122592Y366140D01*
X-121103Y367629D01*
X-121103Y375321D01*
X-122592Y376810D01*
X-137932Y376810D01*
X-137957Y376796D01*
X-138018Y376752D01*
X-138064Y376738D01*
X-138106Y376715D01*
X-138181Y376702D01*
X-138254Y376680D01*
X-138301Y376681D01*
X-138349Y376673D01*
X-138424Y376684D01*
X-138499Y376686D01*
X-138545Y376702D01*
X-138592Y376710D01*
X-138659Y376744D01*
X-138730Y376770D01*
X-138768Y376800D01*
X-138811Y376822D01*
X-138863Y376877D01*
X-138922Y376924D01*
X-138948Y376964D01*
X-138982Y376999D01*
X-139014Y377067D01*
X-139055Y377131D01*
X-139067Y377178D01*
X-139088Y377221D01*
X-139097Y377296D01*
X-139116Y377370D01*
X-139112Y377417D01*
X-139118Y377465D01*
X-139098Y377592D01*
X-139096Y377615D01*
X-139094Y377621D01*
X-139092Y377631D01*
X-139028Y377871D01*
X-139028Y379604D01*
X-147537Y379604D01*
X-147557Y379607D01*
X-147577Y379605D01*
X-147678Y379627D01*
X-147780Y379643D01*
X-147798Y379653D01*
X-147817Y379657D01*
X-147906Y379710D01*
X-147997Y379759D01*
X-148011Y379773D01*
X-148028Y379783D01*
X-148096Y379862D01*
X-148167Y379937D01*
X-148175Y379954D01*
X-148201Y379905D01*
X-148216Y379891D01*
X-148226Y379874D01*
X-148305Y379807D01*
X-148380Y379735D01*
X-148398Y379727D01*
X-148413Y379714D01*
X-148509Y379675D01*
X-148603Y379632D01*
X-148622Y379630D01*
X-148641Y379622D01*
X-148808Y379604D01*
X-157317Y379604D01*
X-157317Y377872D01*
X-157221Y377514D01*
X-157210Y377395D01*
X-157197Y377278D01*
X-157197Y377273D01*
X-157197Y377269D01*
X-157224Y377153D01*
X-157249Y377037D01*
X-157251Y377034D01*
X-157252Y377030D01*
X-157314Y376927D01*
X-157375Y376826D01*
X-157378Y376823D01*
X-157380Y376820D01*
X-157472Y376743D01*
X-157562Y376666D01*
X-157566Y376665D01*
X-157569Y376662D01*
X-157679Y376619D01*
X-157790Y376574D01*
X-157795Y376574D01*
X-157798Y376572D01*
X-157812Y376572D01*
X-157957Y376556D01*
X-168233Y376556D01*
X-168295Y376511D01*
X-168365Y376451D01*
X-168395Y376439D01*
X-168421Y376420D01*
X-168508Y376393D01*
X-168593Y376359D01*
X-168634Y376355D01*
X-168656Y376348D01*
X-168689Y376349D01*
X-168760Y376341D01*
X-175352Y376341D01*
X-176841Y374852D01*
X-176841Y361748D01*
X-175352Y360259D01*
X-163248Y360259D01*
G37*
%LPD*%
%LPC*%
G36*
X-505704Y204359D02*
X-505704Y204359D01*
X-501463Y206116D01*
X-498216Y209363D01*
X-496459Y213604D01*
X-496459Y218196D01*
X-498216Y222437D01*
X-501463Y225684D01*
X-505704Y227441D01*
X-510296Y227441D01*
X-514537Y225684D01*
X-517784Y222437D01*
X-519541Y218196D01*
X-519541Y213604D01*
X-517784Y209363D01*
X-514537Y206116D01*
X-510296Y204359D01*
X-505704Y204359D01*
G37*
%LPD*%
%LPC*%
G36*
X-251704Y204359D02*
X-251704Y204359D01*
X-247463Y206116D01*
X-244216Y209363D01*
X-242459Y213604D01*
X-242459Y218196D01*
X-244216Y222437D01*
X-247463Y225684D01*
X-251704Y227441D01*
X-256296Y227441D01*
X-260537Y225684D01*
X-263784Y222437D01*
X-265541Y218196D01*
X-265541Y213604D01*
X-263784Y209363D01*
X-260537Y206116D01*
X-256296Y204359D01*
X-251704Y204359D01*
G37*
%LPD*%
%LPC*%
G36*
X-251704Y178959D02*
X-251704Y178959D01*
X-247463Y180716D01*
X-244216Y183963D01*
X-242459Y188204D01*
X-242459Y192796D01*
X-244216Y197037D01*
X-247463Y200284D01*
X-251704Y202041D01*
X-256296Y202041D01*
X-260537Y200284D01*
X-263784Y197037D01*
X-265541Y192796D01*
X-265541Y188204D01*
X-263784Y183963D01*
X-260537Y180716D01*
X-256296Y178959D01*
X-251704Y178959D01*
G37*
%LPD*%
%LPC*%
G36*
X-505704Y178959D02*
X-505704Y178959D01*
X-501463Y180716D01*
X-498216Y183963D01*
X-496459Y188204D01*
X-496459Y192796D01*
X-498216Y197037D01*
X-501463Y200284D01*
X-505704Y202041D01*
X-510296Y202041D01*
X-514537Y200284D01*
X-517784Y197037D01*
X-519541Y192796D01*
X-519541Y188204D01*
X-517784Y183963D01*
X-514537Y180716D01*
X-510296Y178959D01*
X-505704Y178959D01*
G37*
%LPD*%
%LPC*%
G36*
X-251704Y153559D02*
X-251704Y153559D01*
X-247463Y155316D01*
X-244216Y158563D01*
X-242459Y162804D01*
X-242459Y167396D01*
X-244216Y171637D01*
X-247463Y174884D01*
X-251704Y176641D01*
X-256296Y176641D01*
X-260537Y174884D01*
X-263784Y171637D01*
X-265541Y167396D01*
X-265541Y162804D01*
X-263784Y158563D01*
X-260537Y155316D01*
X-256296Y153559D01*
X-251704Y153559D01*
G37*
%LPD*%
%LPC*%
G36*
X-505704Y458359D02*
X-505704Y458359D01*
X-501463Y460116D01*
X-498216Y463363D01*
X-496459Y467604D01*
X-496459Y472196D01*
X-498216Y476437D01*
X-501463Y479684D01*
X-505704Y481441D01*
X-510296Y481441D01*
X-514537Y479684D01*
X-517784Y476437D01*
X-519541Y472196D01*
X-519541Y467604D01*
X-517784Y463363D01*
X-514537Y460116D01*
X-510296Y458359D01*
X-505704Y458359D01*
G37*
%LPD*%
%LPC*%
G36*
X-251704Y458359D02*
X-251704Y458359D01*
X-247463Y460116D01*
X-244216Y463363D01*
X-242459Y467604D01*
X-242459Y472196D01*
X-244216Y476437D01*
X-247463Y479684D01*
X-251704Y481441D01*
X-256296Y481441D01*
X-260537Y479684D01*
X-263784Y476437D01*
X-265541Y472196D01*
X-265541Y467604D01*
X-263784Y463363D01*
X-260537Y460116D01*
X-256296Y458359D01*
X-251704Y458359D01*
G37*
%LPD*%
%LPC*%
G36*
X-505704Y432959D02*
X-505704Y432959D01*
X-501463Y434716D01*
X-498216Y437963D01*
X-496459Y442204D01*
X-496459Y446796D01*
X-498216Y451037D01*
X-501463Y454284D01*
X-505704Y456041D01*
X-510296Y456041D01*
X-514537Y454284D01*
X-517784Y451037D01*
X-519541Y446796D01*
X-519541Y442204D01*
X-517784Y437963D01*
X-514537Y434716D01*
X-510296Y432959D01*
X-505704Y432959D01*
G37*
%LPD*%
%LPC*%
G36*
X-251704Y432959D02*
X-251704Y432959D01*
X-247463Y434716D01*
X-244216Y437963D01*
X-242459Y442204D01*
X-242459Y446796D01*
X-244216Y451037D01*
X-247463Y454284D01*
X-251704Y456041D01*
X-256296Y456041D01*
X-260537Y454284D01*
X-263784Y451037D01*
X-265541Y446796D01*
X-265541Y442204D01*
X-263784Y437963D01*
X-260537Y434716D01*
X-256296Y432959D01*
X-251704Y432959D01*
G37*
%LPD*%
%LPC*%
G36*
X-505704Y153559D02*
X-505704Y153559D01*
X-501463Y155316D01*
X-498216Y158563D01*
X-496459Y162804D01*
X-496459Y167396D01*
X-498216Y171637D01*
X-501463Y174884D01*
X-505704Y176641D01*
X-510296Y176641D01*
X-514537Y174884D01*
X-517784Y171637D01*
X-519541Y167396D01*
X-519541Y162804D01*
X-517784Y158563D01*
X-514537Y155316D01*
X-510296Y153559D01*
X-505704Y153559D01*
G37*
%LPD*%
%LPC*%
G36*
X-505704Y102759D02*
X-505704Y102759D01*
X-501463Y104516D01*
X-498216Y107763D01*
X-496459Y112004D01*
X-496459Y116596D01*
X-498216Y120837D01*
X-501463Y124084D01*
X-505704Y125841D01*
X-510296Y125841D01*
X-514537Y124084D01*
X-517784Y120837D01*
X-519541Y116596D01*
X-519541Y112004D01*
X-517784Y107763D01*
X-514537Y104516D01*
X-510296Y102759D01*
X-505704Y102759D01*
G37*
%LPD*%
%LPC*%
G36*
X-251704Y407559D02*
X-251704Y407559D01*
X-247463Y409316D01*
X-244216Y412563D01*
X-242459Y416804D01*
X-242459Y421396D01*
X-244216Y425637D01*
X-247463Y428884D01*
X-251704Y430641D01*
X-256296Y430641D01*
X-260537Y428884D01*
X-263784Y425637D01*
X-265541Y421396D01*
X-265541Y416804D01*
X-263784Y412563D01*
X-260537Y409316D01*
X-256296Y407559D01*
X-251704Y407559D01*
G37*
%LPD*%
%LPC*%
G36*
X-505704Y407559D02*
X-505704Y407559D01*
X-501463Y409316D01*
X-498216Y412563D01*
X-496459Y416804D01*
X-496459Y421396D01*
X-498216Y425637D01*
X-501463Y428884D01*
X-505704Y430641D01*
X-510296Y430641D01*
X-514537Y428884D01*
X-517784Y425637D01*
X-519541Y421396D01*
X-519541Y416804D01*
X-517784Y412563D01*
X-514537Y409316D01*
X-510296Y407559D01*
X-505704Y407559D01*
G37*
%LPD*%
%LPC*%
G36*
X-505704Y382159D02*
X-505704Y382159D01*
X-501463Y383916D01*
X-498216Y387163D01*
X-496459Y391404D01*
X-496459Y395996D01*
X-498216Y400237D01*
X-501463Y403484D01*
X-505704Y405241D01*
X-510296Y405241D01*
X-514537Y403484D01*
X-517784Y400237D01*
X-519541Y395996D01*
X-519541Y391404D01*
X-517784Y387163D01*
X-514537Y383916D01*
X-510296Y382159D01*
X-505704Y382159D01*
G37*
%LPD*%
%LPC*%
G36*
X-251704Y382159D02*
X-251704Y382159D01*
X-247463Y383916D01*
X-244216Y387163D01*
X-242459Y391404D01*
X-242459Y395996D01*
X-244216Y400237D01*
X-247463Y403484D01*
X-251704Y405241D01*
X-256296Y405241D01*
X-260537Y403484D01*
X-263784Y400237D01*
X-265541Y395996D01*
X-265541Y391404D01*
X-263784Y387163D01*
X-260537Y383916D01*
X-256296Y382159D01*
X-251704Y382159D01*
G37*
%LPD*%
%LPC*%
G36*
X-505704Y356759D02*
X-505704Y356759D01*
X-501463Y358516D01*
X-498216Y361763D01*
X-496459Y366004D01*
X-496459Y370596D01*
X-498216Y374837D01*
X-501463Y378084D01*
X-505704Y379841D01*
X-510296Y379841D01*
X-514537Y378084D01*
X-517784Y374837D01*
X-519541Y370596D01*
X-519541Y366004D01*
X-517784Y361763D01*
X-514537Y358516D01*
X-510296Y356759D01*
X-505704Y356759D01*
G37*
%LPD*%
%LPC*%
G36*
X-505704Y331359D02*
X-505704Y331359D01*
X-501463Y333116D01*
X-498216Y336363D01*
X-496459Y340604D01*
X-496459Y345196D01*
X-498216Y349437D01*
X-501463Y352684D01*
X-505704Y354441D01*
X-510296Y354441D01*
X-514537Y352684D01*
X-517784Y349437D01*
X-519541Y345196D01*
X-519541Y340604D01*
X-517784Y336363D01*
X-514537Y333116D01*
X-510296Y331359D01*
X-505704Y331359D01*
G37*
%LPD*%
%LPC*%
G36*
X-505704Y305959D02*
X-505704Y305959D01*
X-501463Y307716D01*
X-498216Y310963D01*
X-496459Y315204D01*
X-496459Y319796D01*
X-498216Y324037D01*
X-501463Y327284D01*
X-505704Y329041D01*
X-510296Y329041D01*
X-514537Y327284D01*
X-517784Y324037D01*
X-519541Y319796D01*
X-519541Y315204D01*
X-517784Y310963D01*
X-514537Y307716D01*
X-510296Y305959D01*
X-505704Y305959D01*
G37*
%LPD*%
%LPC*%
G36*
X-251704Y305959D02*
X-251704Y305959D01*
X-247463Y307716D01*
X-244216Y310963D01*
X-242459Y315204D01*
X-242459Y319796D01*
X-244216Y324037D01*
X-247463Y327284D01*
X-251704Y329041D01*
X-256296Y329041D01*
X-260537Y327284D01*
X-263784Y324037D01*
X-265541Y319796D01*
X-265541Y315204D01*
X-263784Y310963D01*
X-260537Y307716D01*
X-256296Y305959D01*
X-251704Y305959D01*
G37*
%LPD*%
%LPC*%
G36*
X-505704Y280559D02*
X-505704Y280559D01*
X-501463Y282316D01*
X-498216Y285563D01*
X-496459Y289804D01*
X-496459Y294396D01*
X-498216Y298637D01*
X-501463Y301884D01*
X-505704Y303641D01*
X-510296Y303641D01*
X-514537Y301884D01*
X-517784Y298637D01*
X-519541Y294396D01*
X-519541Y289804D01*
X-517784Y285563D01*
X-514537Y282316D01*
X-510296Y280559D01*
X-505704Y280559D01*
G37*
%LPD*%
%LPC*%
G36*
X-251704Y280559D02*
X-251704Y280559D01*
X-247463Y282316D01*
X-244216Y285563D01*
X-242459Y289804D01*
X-242459Y294396D01*
X-244216Y298637D01*
X-247463Y301884D01*
X-251704Y303641D01*
X-256296Y303641D01*
X-260537Y301884D01*
X-263784Y298637D01*
X-265541Y294396D01*
X-265541Y289804D01*
X-263784Y285563D01*
X-260537Y282316D01*
X-256296Y280559D01*
X-251704Y280559D01*
G37*
%LPD*%
%LPC*%
G36*
X-505704Y255159D02*
X-505704Y255159D01*
X-501463Y256916D01*
X-498216Y260163D01*
X-496459Y264404D01*
X-496459Y268996D01*
X-498216Y273237D01*
X-501463Y276484D01*
X-505704Y278241D01*
X-510296Y278241D01*
X-514537Y276484D01*
X-517784Y273237D01*
X-519541Y268996D01*
X-519541Y264404D01*
X-517784Y260163D01*
X-514537Y256916D01*
X-510296Y255159D01*
X-505704Y255159D01*
G37*
%LPD*%
%LPC*%
G36*
X-505704Y229759D02*
X-505704Y229759D01*
X-501463Y231516D01*
X-498216Y234763D01*
X-496459Y239004D01*
X-496459Y243596D01*
X-498216Y247837D01*
X-501463Y251084D01*
X-505704Y252841D01*
X-510296Y252841D01*
X-514537Y251084D01*
X-517784Y247837D01*
X-519541Y243596D01*
X-519541Y239004D01*
X-517784Y234763D01*
X-514537Y231516D01*
X-510296Y229759D01*
X-505704Y229759D01*
G37*
%LPD*%
%LPC*%
G36*
X-48994Y422719D02*
X-48994Y422719D01*
X-45656Y424102D01*
X-43102Y426656D01*
X-41719Y429994D01*
X-41719Y433606D01*
X-43102Y436944D01*
X-45656Y439498D01*
X-48994Y440881D01*
X-52606Y440881D01*
X-55944Y439498D01*
X-58498Y436944D01*
X-59881Y433606D01*
X-59881Y429994D01*
X-58498Y426656D01*
X-55944Y424102D01*
X-52606Y422719D01*
X-48994Y422719D01*
G37*
%LPD*%
%LPC*%
G36*
X-74394Y422719D02*
X-74394Y422719D01*
X-71056Y424102D01*
X-68502Y426656D01*
X-67119Y429994D01*
X-67119Y433606D01*
X-68502Y436944D01*
X-71056Y439498D01*
X-74394Y440881D01*
X-78006Y440881D01*
X-81344Y439498D01*
X-83898Y436944D01*
X-85281Y433606D01*
X-85281Y429994D01*
X-83898Y426656D01*
X-81344Y424102D01*
X-78006Y422719D01*
X-74394Y422719D01*
G37*
%LPD*%
%LPC*%
G36*
X-166623Y85823D02*
X-166623Y85823D01*
X-166623Y96841D01*
X-176087Y96841D01*
X-178037Y96532D01*
X-179914Y95922D01*
X-181673Y95026D01*
X-183270Y93866D01*
X-184666Y92470D01*
X-185826Y90873D01*
X-186722Y89114D01*
X-187332Y87237D01*
X-187556Y85823D01*
X-166623Y85823D01*
G37*
%LPD*%
%LPC*%
G36*
X-214623Y115823D02*
X-214623Y115823D01*
X-214623Y136756D01*
X-216037Y136532D01*
X-217914Y135922D01*
X-219673Y135026D01*
X-221270Y133866D01*
X-222666Y132470D01*
X-223826Y130873D01*
X-224722Y129114D01*
X-225332Y127237D01*
X-225641Y125287D01*
X-225641Y115823D01*
X-214623Y115823D01*
G37*
%LPD*%
%LPC*%
G36*
X-142644Y85823D02*
X-142644Y85823D01*
X-142868Y87237D01*
X-143478Y89114D01*
X-144374Y90873D01*
X-145534Y92470D01*
X-146930Y93866D01*
X-148527Y95026D01*
X-150286Y95922D01*
X-152163Y96532D01*
X-154113Y96841D01*
X-163577Y96841D01*
X-163577Y85823D01*
X-142644Y85823D01*
G37*
%LPD*%
%LPC*%
G36*
X-214623Y112777D02*
X-214623Y112777D01*
X-225641Y112777D01*
X-225641Y103313D01*
X-225332Y101363D01*
X-224722Y99486D01*
X-223826Y97727D01*
X-222666Y96130D01*
X-221270Y94734D01*
X-219673Y93574D01*
X-217914Y92678D01*
X-216037Y92068D01*
X-214623Y91844D01*
X-214623Y112777D01*
G37*
%LPD*%
%LPC*%
G36*
X-200559Y115823D02*
X-200559Y115823D01*
X-200559Y125287D01*
X-200868Y127237D01*
X-201478Y129114D01*
X-202374Y130873D01*
X-203534Y132470D01*
X-204930Y133866D01*
X-206527Y135026D01*
X-208286Y135922D01*
X-210163Y136532D01*
X-211577Y136756D01*
X-211577Y115823D01*
X-200559Y115823D01*
G37*
%LPD*%
%LPC*%
G36*
X-166623Y71759D02*
X-166623Y71759D01*
X-166623Y82777D01*
X-187556Y82777D01*
X-187332Y81363D01*
X-186722Y79486D01*
X-185826Y77727D01*
X-184666Y76130D01*
X-183270Y74734D01*
X-181673Y73574D01*
X-179914Y72678D01*
X-178037Y72068D01*
X-176087Y71759D01*
X-166623Y71759D01*
G37*
%LPD*%
%LPC*%
G36*
X-210163Y92068D02*
X-210163Y92068D01*
X-208286Y92678D01*
X-206527Y93574D01*
X-204930Y94734D01*
X-203534Y96130D01*
X-202374Y97727D01*
X-201478Y99486D01*
X-200868Y101363D01*
X-200559Y103313D01*
X-200559Y112777D01*
X-211577Y112777D01*
X-211577Y91844D01*
X-210163Y92068D01*
G37*
%LPD*%
%LPC*%
G36*
X-154113Y71759D02*
X-154113Y71759D01*
X-152163Y72068D01*
X-150286Y72678D01*
X-148527Y73574D01*
X-146930Y74734D01*
X-145534Y76130D01*
X-144374Y77727D01*
X-143478Y79486D01*
X-142868Y81363D01*
X-142644Y82777D01*
X-163577Y82777D01*
X-163577Y71759D01*
X-154113Y71759D01*
G37*
%LPD*%
%LPC*%
G36*
X-204723Y496823D02*
X-204723Y496823D01*
X-204723Y512805D01*
X-205561Y512673D01*
X-207070Y512182D01*
X-208483Y511462D01*
X-209767Y510529D01*
X-210889Y509407D01*
X-211822Y508123D01*
X-212542Y506710D01*
X-213033Y505201D01*
X-213281Y503633D01*
X-213281Y496823D01*
X-204723Y496823D01*
G37*
%LPD*%
%LPC*%
G36*
X-204723Y493777D02*
X-204723Y493777D01*
X-213281Y493777D01*
X-213281Y486967D01*
X-213033Y485399D01*
X-212542Y483890D01*
X-211822Y482477D01*
X-210889Y481193D01*
X-209767Y480071D01*
X-208483Y479138D01*
X-207070Y478418D01*
X-205561Y477927D01*
X-204723Y477795D01*
X-204723Y493777D01*
G37*
%LPD*%
%LPC*%
G36*
X-193119Y496823D02*
X-193119Y496823D01*
X-193119Y503633D01*
X-193367Y505201D01*
X-193858Y506710D01*
X-194578Y508123D01*
X-195511Y509407D01*
X-196633Y510529D01*
X-197917Y511462D01*
X-199330Y512182D01*
X-200839Y512673D01*
X-201677Y512805D01*
X-201677Y496823D01*
X-193119Y496823D01*
G37*
%LPD*%
%LPC*%
G36*
X-200839Y477927D02*
X-200839Y477927D01*
X-199330Y478418D01*
X-197917Y479138D01*
X-196633Y480071D01*
X-195511Y481193D01*
X-194578Y482477D01*
X-193858Y483890D01*
X-193367Y485399D01*
X-193119Y486967D01*
X-193119Y493777D01*
X-201677Y493777D01*
X-201677Y477795D01*
X-200839Y477927D01*
G37*
%LPD*%
%LPC*%
G36*
X-255523Y141223D02*
X-255523Y141223D01*
X-255523Y151143D01*
X-256702Y150957D01*
X-258430Y150395D01*
X-260049Y149571D01*
X-261518Y148503D01*
X-262803Y147218D01*
X-263871Y145749D01*
X-264695Y144130D01*
X-265257Y142402D01*
X-265443Y141223D01*
X-255523Y141223D01*
G37*
%LPD*%
%LPC*%
G36*
X-509523Y141223D02*
X-509523Y141223D01*
X-509523Y151143D01*
X-510702Y150957D01*
X-512430Y150395D01*
X-514049Y149571D01*
X-515518Y148503D01*
X-516803Y147218D01*
X-517871Y145749D01*
X-518695Y144130D01*
X-519257Y142402D01*
X-519443Y141223D01*
X-509523Y141223D01*
G37*
%LPD*%
%LPC*%
G36*
X-496557Y141223D02*
X-496557Y141223D01*
X-496743Y142402D01*
X-497305Y144130D01*
X-498129Y145749D01*
X-499197Y147218D01*
X-500482Y148503D01*
X-501951Y149571D01*
X-503570Y150395D01*
X-505298Y150957D01*
X-506477Y151143D01*
X-506477Y141223D01*
X-496557Y141223D01*
G37*
%LPD*%
%LPC*%
G36*
X-255523Y138177D02*
X-255523Y138177D01*
X-265443Y138177D01*
X-265257Y136998D01*
X-264695Y135270D01*
X-263871Y133651D01*
X-262803Y132182D01*
X-261518Y130897D01*
X-260049Y129829D01*
X-258430Y129005D01*
X-256702Y128443D01*
X-255523Y128257D01*
X-255523Y138177D01*
G37*
%LPD*%
%LPC*%
G36*
X-509523Y138177D02*
X-509523Y138177D01*
X-519443Y138177D01*
X-519257Y136998D01*
X-518695Y135270D01*
X-517871Y133651D01*
X-516803Y132182D01*
X-515518Y130897D01*
X-514049Y129829D01*
X-512430Y129005D01*
X-510702Y128443D01*
X-509523Y128257D01*
X-509523Y138177D01*
G37*
%LPD*%
%LPC*%
G36*
X-242557Y141223D02*
X-242557Y141223D01*
X-242743Y142402D01*
X-243305Y144130D01*
X-244129Y145749D01*
X-245197Y147218D01*
X-246482Y148503D01*
X-247951Y149571D01*
X-249570Y150395D01*
X-251298Y150957D01*
X-252477Y151143D01*
X-252477Y141223D01*
X-242557Y141223D01*
G37*
%LPD*%
%LPC*%
G36*
X-505298Y128443D02*
X-505298Y128443D01*
X-503570Y129005D01*
X-501951Y129829D01*
X-500482Y130897D01*
X-499197Y132182D01*
X-498129Y133651D01*
X-497305Y135270D01*
X-496743Y136998D01*
X-496557Y138177D01*
X-506477Y138177D01*
X-506477Y128257D01*
X-505298Y128443D01*
G37*
%LPD*%
%LPC*%
G36*
X-47243Y115823D02*
X-47243Y115823D01*
X-47243Y124842D01*
X-50087Y124842D01*
X-56262Y118667D01*
X-56262Y115823D01*
X-47243Y115823D01*
G37*
%LPD*%
%LPC*%
G36*
X-35178Y115823D02*
X-35178Y115823D01*
X-35178Y118667D01*
X-41353Y124842D01*
X-44197Y124842D01*
X-44197Y115823D01*
X-35178Y115823D01*
G37*
%LPD*%
%LPC*%
G36*
X-47243Y103758D02*
X-47243Y103758D01*
X-47243Y112777D01*
X-56262Y112777D01*
X-56262Y109933D01*
X-50087Y103758D01*
X-47243Y103758D01*
G37*
%LPD*%
%LPC*%
G36*
X-41353Y103758D02*
X-41353Y103758D01*
X-35178Y109933D01*
X-35178Y112777D01*
X-44197Y112777D01*
X-44197Y103758D01*
X-41353Y103758D01*
G37*
%LPD*%
%LPC*%
G36*
X-77723Y179323D02*
X-77723Y179323D01*
X-77723Y186756D01*
X-78849Y186532D01*
X-80501Y185847D01*
X-81989Y184853D01*
X-83253Y183589D01*
X-84247Y182101D01*
X-84932Y180449D01*
X-85156Y179323D01*
X-77723Y179323D01*
G37*
%LPD*%
%LPC*%
G36*
X-77723Y176277D02*
X-77723Y176277D01*
X-85156Y176277D01*
X-84932Y175151D01*
X-84247Y173499D01*
X-83253Y172011D01*
X-81989Y170747D01*
X-80501Y169753D01*
X-78849Y169068D01*
X-77723Y168844D01*
X-77723Y176277D01*
G37*
%LPD*%
%LPC*%
G36*
X-67244Y179323D02*
X-67244Y179323D01*
X-67468Y180449D01*
X-68153Y182101D01*
X-69147Y183589D01*
X-70411Y184853D01*
X-71899Y185847D01*
X-73551Y186532D01*
X-74677Y186756D01*
X-74677Y179323D01*
X-67244Y179323D01*
G37*
%LPD*%
%LPC*%
G36*
X-73551Y169068D02*
X-73551Y169068D01*
X-71899Y169753D01*
X-70411Y170747D01*
X-69147Y172011D01*
X-68153Y173499D01*
X-67468Y175151D01*
X-67244Y176277D01*
X-74677Y176277D01*
X-74677Y168844D01*
X-73551Y169068D01*
G37*
%LPD*%
%LPC*%
G36*
X-507999Y139699D02*
X-507999Y139699D01*
X-507999Y139701D01*
X-508001Y139701D01*
X-508001Y139699D01*
X-507999Y139699D01*
G37*
%LPD*%
%LPC*%
G36*
X-76199Y177799D02*
X-76199Y177799D01*
X-76199Y177801D01*
X-76201Y177801D01*
X-76201Y177799D01*
X-76199Y177799D01*
G37*
%LPD*%
%LPC*%
G36*
X-213099Y114299D02*
X-213099Y114299D01*
X-213099Y114301D01*
X-213101Y114301D01*
X-213101Y114299D01*
X-213099Y114299D01*
G37*
%LPD*%
%LPC*%
G36*
X-45719Y114299D02*
X-45719Y114299D01*
X-45719Y114301D01*
X-45721Y114301D01*
X-45721Y114299D01*
X-45719Y114299D01*
G37*
%LPD*%
%LPC*%
G36*
X-203199Y495299D02*
X-203199Y495299D01*
X-203199Y495301D01*
X-203201Y495301D01*
X-203201Y495299D01*
X-203199Y495299D01*
G37*
%LPD*%
%LPC*%
G36*
X-165099Y84299D02*
X-165099Y84299D01*
X-165099Y84301D01*
X-165101Y84301D01*
X-165101Y84299D01*
X-165099Y84299D01*
G37*
%LPD*%
%LPC*%
G36*
X-253999Y139699D02*
X-253999Y139699D01*
X-253999Y139701D01*
X-254001Y139701D01*
X-254001Y139699D01*
X-253999Y139699D01*
G37*
%LPD*%
D10*
X-45720Y114300D03*
D11*
X-81280Y114300D03*
D12*
X-508000Y114300D03*
X-508000Y190500D03*
X-508000Y215900D03*
X-508000Y292100D03*
X-254000Y190500D03*
X-254000Y165100D03*
X-254000Y215900D03*
X-508000Y165100D03*
X-508000Y317500D03*
X-508000Y342900D03*
X-508000Y368300D03*
X-508000Y444500D03*
X-508000Y469900D03*
X-254000Y292100D03*
X-254000Y266700D03*
X-254000Y241300D03*
X-254000Y342900D03*
X-254000Y317500D03*
X-254000Y393700D03*
X-254000Y368300D03*
X-254000Y469900D03*
X-254000Y139700D03*
X-508000Y139700D03*
X-508000Y393700D03*
X-508000Y241300D03*
X-508000Y419100D03*
X-508000Y266700D03*
X-254000Y114300D03*
X-254000Y419100D03*
X-254000Y444500D03*
D13*
X-175100Y145300D02*
X-155100Y145300D01*
X-213100Y124300D02*
X-213100Y104300D01*
X-175100Y84300D02*
X-155100Y84300D01*
D14*
X-186300Y368300D03*
X-169300Y368300D03*
D15*
X-152400Y487760D02*
X-152400Y502840D01*
X-177800Y502840D02*
X-177800Y487760D01*
X-203200Y487760D02*
X-203200Y502840D01*
D16*
X-130248Y371475D03*
X-130248Y390525D03*
X-148173Y381000D03*
D14*
X-110100Y393700D03*
X-93100Y393700D03*
D15*
X-38100Y487760D02*
X-38100Y502840D01*
X-63500Y502840D02*
X-63500Y487760D01*
X-88900Y487760D02*
X-88900Y502840D01*
X-114300Y502840D02*
X-114300Y487760D01*
D17*
X-152400Y177800D03*
X-127000Y177800D03*
X-101600Y177800D03*
X-76200Y177800D03*
X-50800Y431800D03*
X-76200Y431800D03*
X-101600Y431800D03*
X-127000Y431800D03*
X-152400Y431800D03*
X-177800Y431800D03*
D18*
X-165100Y145300D02*
X-223000Y145300D01*
X-254000Y114300D01*
X-165100Y145300D02*
X-152400Y158000D01*
X-152400Y177800D01*
X-50800Y368300D02*
X-76200Y393700D01*
X-93100Y393700D01*
X-93100Y397900D01*
X-101600Y406400D01*
X-177800Y406400D01*
X-190500Y419100D01*
X-190500Y444500D01*
X-152400Y482600D01*
X-152400Y495300D01*
X-165100Y145300D02*
X-134100Y114300D01*
X-81280Y114300D01*
X-50800Y144780D01*
X-50800Y368300D01*
X-186300Y368300D02*
X-228600Y368300D01*
X-254000Y342900D01*
X-166125Y371475D02*
X-130248Y371475D01*
X-166125Y371475D02*
X-169300Y368300D01*
X-130248Y390525D02*
X-113275Y390525D01*
X-110100Y393700D01*
X-130248Y390525D02*
X-187325Y390525D01*
X-203200Y406400D01*
X-203200Y457200D01*
X-177800Y482600D01*
X-177800Y495300D01*
X-101600Y431800D02*
X-38100Y495300D01*
X-63500Y495300D02*
X-127000Y431800D01*
X-152400Y431800D02*
X-88900Y495300D01*
X-114300Y495300D02*
X-177800Y431800D01*
X-190500Y241300D02*
X-127000Y177800D01*
X-190500Y241300D02*
X-254000Y241300D01*
X-190500Y266700D02*
X-101600Y177800D01*
X-190500Y266700D02*
X-254000Y266700D01*
M02*
