M48
;GenerationSoftware,Autodesk,EAGLE,9.6.0*%
;CreationDate,2020-11-14T10:19:51Z*%
FMAT,2
ICI,OFF
METRIC,TZ,000.000
T4C0.800
T3C0.813
T2C1.000
T1C3.000
%
G90
M71
T1
X-3810Y3810
X-25400Y52070
X-50800Y3810
X-50800Y52070
T2
X-8890Y49530
X-11430Y49530
X-50800Y11430
X-50800Y19050
X-50800Y21590
X-50800Y29210
X-25400Y19050
X-25400Y16510
X-25400Y21590
X-50800Y16510
X-50800Y31750
X-50800Y34290
X-50800Y36830
X-50800Y44450
X-50800Y46990
X-25400Y29210
X-25400Y26670
X-25400Y24130
X-25400Y34290
X-25400Y31750
X-25400Y39370
X-25400Y36830
X-25400Y46990
X-25400Y13970
X-50800Y13970
X-50800Y39370
X-50800Y24130
X-50800Y41910
X-50800Y26670
X-25400Y11430
X-25400Y41910
X-25400Y44450
X-16510Y14530
X-21310Y11430
X-16510Y8430
X-15240Y49530
X-17780Y49530
X-20320Y49530
X-3810Y49530
X-6350Y49530
T3
X-4572Y11430
X-8128Y11430
T4
X-15240Y17780
X-12700Y17780
X-10160Y17780
X-7620Y17780
X-5080Y43180
X-7620Y43180
X-10160Y43180
X-12700Y43180
X-15240Y43180
X-17780Y43180
M30