G04 EAGLE Gerber RS-274X export*
G75*
%MOMM*%
%FSLAX34Y34*%
%LPD*%
%IN*%
%IPPOS*%
%AMOC8*
5,1,8,0,0,1.08239X$1,22.5*%
G01*
%ADD10C,0.254000*%

G36*
X-181605Y140299D02*
X-181605Y140299D01*
X-181605Y140300D01*
X-181605Y150300D01*
X-181601Y150305D01*
X-181600Y150305D01*
X-148600Y150305D01*
X-148595Y150301D01*
X-148595Y150300D01*
X-148595Y140300D01*
X-148599Y140295D01*
X-148600Y140295D01*
X-181600Y140295D01*
X-181605Y140299D01*
G37*
G36*
X-218105Y100299D02*
X-218105Y100299D01*
X-218105Y100300D01*
X-218105Y128300D01*
X-218101Y128305D01*
X-218100Y128305D01*
X-208100Y128305D01*
X-208095Y128301D01*
X-208095Y128300D01*
X-208095Y100300D01*
X-208099Y100295D01*
X-208100Y100295D01*
X-218100Y100295D01*
X-218105Y100299D01*
G37*
G36*
X-179105Y79299D02*
X-179105Y79299D01*
X-179105Y79300D01*
X-179105Y89300D01*
X-179101Y89305D01*
X-179100Y89305D01*
X-151100Y89305D01*
X-151095Y89301D01*
X-151095Y89300D01*
X-151095Y79300D01*
X-151099Y79295D01*
X-151100Y79295D01*
X-179100Y79295D01*
X-179105Y79299D01*
G37*
D10*
X0Y0D02*
X-546100Y0D01*
X-546100Y558800D01*
X0Y558800D01*
X0Y0D01*
X-53100Y37564D02*
X-53024Y36496D01*
X-52871Y35435D01*
X-52643Y34388D01*
X-52341Y33360D01*
X-51967Y32356D01*
X-51522Y31381D01*
X-51008Y30441D01*
X-50429Y29540D01*
X-49787Y28682D01*
X-49085Y27872D01*
X-48328Y27115D01*
X-47518Y26413D01*
X-46660Y25771D01*
X-45759Y25192D01*
X-44819Y24678D01*
X-43844Y24233D01*
X-42840Y23859D01*
X-41812Y23557D01*
X-40765Y23329D01*
X-39704Y23176D01*
X-38636Y23100D01*
X-37564Y23100D01*
X-36496Y23176D01*
X-35435Y23329D01*
X-34388Y23557D01*
X-33360Y23859D01*
X-32356Y24233D01*
X-31381Y24678D01*
X-30441Y25192D01*
X-29540Y25771D01*
X-28682Y26413D01*
X-27872Y27115D01*
X-27115Y27872D01*
X-26413Y28682D01*
X-25771Y29540D01*
X-25192Y30441D01*
X-24678Y31381D01*
X-24233Y32356D01*
X-23859Y33360D01*
X-23557Y34388D01*
X-23329Y35435D01*
X-23176Y36496D01*
X-23100Y37564D01*
X-23100Y38636D01*
X-23176Y39704D01*
X-23329Y40765D01*
X-23557Y41812D01*
X-23859Y42840D01*
X-24233Y43844D01*
X-24678Y44819D01*
X-25192Y45759D01*
X-25771Y46660D01*
X-26413Y47518D01*
X-27115Y48328D01*
X-27872Y49085D01*
X-28682Y49787D01*
X-29540Y50429D01*
X-30441Y51008D01*
X-31381Y51522D01*
X-32356Y51967D01*
X-33360Y52341D01*
X-34388Y52643D01*
X-35435Y52871D01*
X-36496Y53024D01*
X-37564Y53100D01*
X-38636Y53100D01*
X-39704Y53024D01*
X-40765Y52871D01*
X-41812Y52643D01*
X-42840Y52341D01*
X-43844Y51967D01*
X-44819Y51522D01*
X-45759Y51008D01*
X-46660Y50429D01*
X-47518Y49787D01*
X-48328Y49085D01*
X-49085Y48328D01*
X-49787Y47518D01*
X-50429Y46660D01*
X-51008Y45759D01*
X-51522Y44819D01*
X-51967Y43844D01*
X-52341Y42840D01*
X-52643Y41812D01*
X-52871Y40765D01*
X-53024Y39704D01*
X-53100Y38636D01*
X-53100Y37564D01*
X-269000Y520164D02*
X-268924Y519096D01*
X-268771Y518035D01*
X-268543Y516988D01*
X-268241Y515960D01*
X-267867Y514956D01*
X-267422Y513981D01*
X-266908Y513041D01*
X-266329Y512140D01*
X-265687Y511282D01*
X-264985Y510472D01*
X-264228Y509715D01*
X-263418Y509013D01*
X-262560Y508371D01*
X-261659Y507792D01*
X-260719Y507278D01*
X-259744Y506833D01*
X-258740Y506459D01*
X-257712Y506157D01*
X-256665Y505929D01*
X-255604Y505776D01*
X-254536Y505700D01*
X-253464Y505700D01*
X-252396Y505776D01*
X-251335Y505929D01*
X-250288Y506157D01*
X-249260Y506459D01*
X-248256Y506833D01*
X-247281Y507278D01*
X-246341Y507792D01*
X-245440Y508371D01*
X-244582Y509013D01*
X-243772Y509715D01*
X-243015Y510472D01*
X-242313Y511282D01*
X-241671Y512140D01*
X-241092Y513041D01*
X-240578Y513981D01*
X-240133Y514956D01*
X-239759Y515960D01*
X-239457Y516988D01*
X-239229Y518035D01*
X-239076Y519096D01*
X-239000Y520164D01*
X-239000Y521236D01*
X-239076Y522304D01*
X-239229Y523365D01*
X-239457Y524412D01*
X-239759Y525440D01*
X-240133Y526444D01*
X-240578Y527419D01*
X-241092Y528359D01*
X-241671Y529260D01*
X-242313Y530118D01*
X-243015Y530928D01*
X-243772Y531685D01*
X-244582Y532387D01*
X-245440Y533029D01*
X-246341Y533608D01*
X-247281Y534122D01*
X-248256Y534567D01*
X-249260Y534941D01*
X-250288Y535243D01*
X-251335Y535471D01*
X-252396Y535624D01*
X-253464Y535700D01*
X-254536Y535700D01*
X-255604Y535624D01*
X-256665Y535471D01*
X-257712Y535243D01*
X-258740Y534941D01*
X-259744Y534567D01*
X-260719Y534122D01*
X-261659Y533608D01*
X-262560Y533029D01*
X-263418Y532387D01*
X-264228Y531685D01*
X-264985Y530928D01*
X-265687Y530118D01*
X-266329Y529260D01*
X-266908Y528359D01*
X-267422Y527419D01*
X-267867Y526444D01*
X-268241Y525440D01*
X-268543Y524412D01*
X-268771Y523365D01*
X-268924Y522304D01*
X-269000Y521236D01*
X-269000Y520164D01*
X-523000Y37564D02*
X-522924Y36496D01*
X-522771Y35435D01*
X-522543Y34388D01*
X-522241Y33360D01*
X-521867Y32356D01*
X-521422Y31381D01*
X-520908Y30441D01*
X-520329Y29540D01*
X-519687Y28682D01*
X-518985Y27872D01*
X-518228Y27115D01*
X-517418Y26413D01*
X-516560Y25771D01*
X-515659Y25192D01*
X-514719Y24678D01*
X-513744Y24233D01*
X-512740Y23859D01*
X-511712Y23557D01*
X-510665Y23329D01*
X-509604Y23176D01*
X-508536Y23100D01*
X-507464Y23100D01*
X-506396Y23176D01*
X-505335Y23329D01*
X-504288Y23557D01*
X-503260Y23859D01*
X-502256Y24233D01*
X-501281Y24678D01*
X-500341Y25192D01*
X-499440Y25771D01*
X-498582Y26413D01*
X-497772Y27115D01*
X-497015Y27872D01*
X-496313Y28682D01*
X-495671Y29540D01*
X-495092Y30441D01*
X-494578Y31381D01*
X-494133Y32356D01*
X-493759Y33360D01*
X-493457Y34388D01*
X-493229Y35435D01*
X-493076Y36496D01*
X-493000Y37564D01*
X-493000Y38636D01*
X-493076Y39704D01*
X-493229Y40765D01*
X-493457Y41812D01*
X-493759Y42840D01*
X-494133Y43844D01*
X-494578Y44819D01*
X-495092Y45759D01*
X-495671Y46660D01*
X-496313Y47518D01*
X-497015Y48328D01*
X-497772Y49085D01*
X-498582Y49787D01*
X-499440Y50429D01*
X-500341Y51008D01*
X-501281Y51522D01*
X-502256Y51967D01*
X-503260Y52341D01*
X-504288Y52643D01*
X-505335Y52871D01*
X-506396Y53024D01*
X-507464Y53100D01*
X-508536Y53100D01*
X-509604Y53024D01*
X-510665Y52871D01*
X-511712Y52643D01*
X-512740Y52341D01*
X-513744Y51967D01*
X-514719Y51522D01*
X-515659Y51008D01*
X-516560Y50429D01*
X-517418Y49787D01*
X-518228Y49085D01*
X-518985Y48328D01*
X-519687Y47518D01*
X-520329Y46660D01*
X-520908Y45759D01*
X-521422Y44819D01*
X-521867Y43844D01*
X-522241Y42840D01*
X-522543Y41812D01*
X-522771Y40765D01*
X-522924Y39704D01*
X-523000Y38636D01*
X-523000Y37564D01*
X-523000Y520164D02*
X-522924Y519096D01*
X-522771Y518035D01*
X-522543Y516988D01*
X-522241Y515960D01*
X-521867Y514956D01*
X-521422Y513981D01*
X-520908Y513041D01*
X-520329Y512140D01*
X-519687Y511282D01*
X-518985Y510472D01*
X-518228Y509715D01*
X-517418Y509013D01*
X-516560Y508371D01*
X-515659Y507792D01*
X-514719Y507278D01*
X-513744Y506833D01*
X-512740Y506459D01*
X-511712Y506157D01*
X-510665Y505929D01*
X-509604Y505776D01*
X-508536Y505700D01*
X-507464Y505700D01*
X-506396Y505776D01*
X-505335Y505929D01*
X-504288Y506157D01*
X-503260Y506459D01*
X-502256Y506833D01*
X-501281Y507278D01*
X-500341Y507792D01*
X-499440Y508371D01*
X-498582Y509013D01*
X-497772Y509715D01*
X-497015Y510472D01*
X-496313Y511282D01*
X-495671Y512140D01*
X-495092Y513041D01*
X-494578Y513981D01*
X-494133Y514956D01*
X-493759Y515960D01*
X-493457Y516988D01*
X-493229Y518035D01*
X-493076Y519096D01*
X-493000Y520164D01*
X-493000Y521236D01*
X-493076Y522304D01*
X-493229Y523365D01*
X-493457Y524412D01*
X-493759Y525440D01*
X-494133Y526444D01*
X-494578Y527419D01*
X-495092Y528359D01*
X-495671Y529260D01*
X-496313Y530118D01*
X-497015Y530928D01*
X-497772Y531685D01*
X-498582Y532387D01*
X-499440Y533029D01*
X-500341Y533608D01*
X-501281Y534122D01*
X-502256Y534567D01*
X-503260Y534941D01*
X-504288Y535243D01*
X-505335Y535471D01*
X-506396Y535624D01*
X-507464Y535700D01*
X-508536Y535700D01*
X-509604Y535624D01*
X-510665Y535471D01*
X-511712Y535243D01*
X-512740Y534941D01*
X-513744Y534567D01*
X-514719Y534122D01*
X-515659Y533608D01*
X-516560Y533029D01*
X-517418Y532387D01*
X-518228Y531685D01*
X-518985Y530928D01*
X-519687Y530118D01*
X-520329Y529260D01*
X-520908Y528359D01*
X-521422Y527419D01*
X-521867Y526444D01*
X-522241Y525440D01*
X-522543Y524412D01*
X-522771Y523365D01*
X-522924Y522304D01*
X-523000Y521236D01*
X-523000Y520164D01*
M02*
